<svg width="54" height="61" viewBox="0 0 54 61" fill="none" xmlns="http://www.w3.org/2000/svg">
<g clip-path="url(#clip0_956_735)">
<path d="M16.3479 21.226C13.0667 21.4986 9.30231 21.7684 6.61664 19.6362C5.46456 18.7215 4.66441 17.4555 4.67062 16.0403C4.67093 14.8076 5.34692 13.6901 6.21878 12.7922C7.13876 11.8423 8.30284 11.1096 9.49206 10.477C11.0585 9.64289 12.7035 8.93176 14.4041 8.36024C17.8027 7.22262 21.4184 6.60464 25.0415 6.58473C28.0365 6.56934 31.4186 6.84583 33.8532 8.63218C35.042 9.50318 35.8113 10.7657 35.9987 12.1485C36.1963 13.6182 35.7876 15.0853 35.2471 16.456C34.6295 18.0283 33.8109 19.5407 33.0599 21.0623L30.5924 26.0637C29.2459 28.7936 27.8585 31.6183 27.6595 34.6595C27.4744 37.538 28.7363 40.2946 31.3577 41.9695C34.0642 43.6976 37.6754 43.7222 40.5356 42.3202C41.2853 41.9548 41.9735 41.4969 42.5967 40.9748C42.8035 40.8025 43.1577 40.3829 42.8057 40.1788C42.4536 39.9746 41.8744 40.3603 41.6431 40.5452C39.1402 42.5469 35.3721 42.4252 32.7301 40.6984C30.0881 38.9717 29.0296 35.8001 29.5357 32.838C30.0873 29.608 31.7919 26.6287 33.2459 23.6872C34.0835 21.9879 34.921 20.2887 35.7586 18.5895C36.471 17.1438 37.1826 15.6714 37.5503 14.114C37.8937 12.6685 37.9136 11.1766 37.2998 9.7858C36.7381 8.51326 35.642 7.51681 34.3568 6.83573C31.5556 5.35125 28.0959 5.2133 24.9516 5.3232C21.1971 5.44528 17.4574 6.17197 13.9662 7.43505C10.8266 8.56827 7.55064 10.0626 5.21171 12.3397C3.16514 14.3259 2.03992 17.1542 3.9058 19.6118C5.94145 22.2976 9.65427 22.7988 12.952 22.6788C13.8354 22.6485 14.7159 22.574 15.5963 22.4995C16.0388 22.4615 16.5667 22.1198 16.7572 21.7588C16.9395 21.4141 16.7627 21.1927 16.3479 21.226V21.226Z" fill="#A1A1E4"/>
<path d="M39.2634 49.7395C39.2351 50.8281 40.2509 51.5985 41.3271 51.8296C42.7159 52.1289 44.1477 51.3889 44.9984 50.4256C45.3912 49.9796 45.6818 49.45 45.8383 48.8925C45.9132 48.6239 45.9556 48.3479 45.9732 48.0712C45.9907 47.7944 46.0463 47.3787 45.7971 47.1856C45.3783 46.8635 44.6294 46.75 44.1018 46.7348C43.4335 46.712 42.7618 46.8168 42.13 47.0212C40.4316 47.5739 39.0708 48.751 37.8956 49.9616C37.7142 50.148 37.568 50.5215 37.9209 50.617C38.2739 50.7125 38.7605 50.4522 39.0083 50.2348C39.8501 49.4958 40.6832 48.6242 41.6741 48.2467C42.4813 47.9391 43.5309 47.9307 44.3715 48.3977L44.2172 48.1959C44.2834 48.7565 44.2231 49.3454 43.957 49.8624C43.9074 49.9601 43.8156 50.1124 43.775 50.171C43.7849 50.1587 43.6847 50.2776 43.665 50.3022L43.6043 50.372C43.6512 50.3293 43.654 50.3239 43.6043 50.372C43.553 50.416 43.4417 50.507 43.5589 50.4186C43.5404 50.4337 43.3291 50.5578 43.4341 50.5005C43.5305 50.446 43.2868 50.5628 43.2911 50.5613C43.4199 50.5142 43.2109 50.5698 43.2722 50.5631C42.7922 50.618 42.2442 50.5147 41.7753 50.2273C41.3064 49.9398 41.0055 49.4568 41.0236 48.9225C41.0369 48.5117 40.2754 48.7365 40.0834 48.8225C39.7097 48.9958 39.2767 49.3287 39.265 49.7435L39.2634 49.7395Z" fill="#A1A1E4"/>
</g>
<defs>
<clipPath id="clip0_956_735">
<rect width="35.018" height="51.1076" fill="white" transform="matrix(0.946694 -0.313117 0.371735 0.931937 0.608887 11.8397)"/>
</clipPath>
</defs>
</svg>
