<svg width="120" height="95" viewBox="0 0 120 95" fill="none" xmlns="http://www.w3.org/2000/svg">
<g clip-path="url(#clip0_956_734)">
<path d="M78.9289 33.7839C76.6204 30.585 74.0248 26.8891 75.0464 22.8554C75.4847 21.125 76.5685 19.5443 78.3215 18.7002C79.8453 17.9598 81.6327 17.9811 83.2664 18.3351C84.9933 18.7071 86.5984 19.4599 88.0949 20.2986C90.0671 21.4027 91.9346 22.6612 93.6629 24.0608C97.1112 26.8603 100.048 30.1945 102.249 33.8957C104.068 36.956 105.759 40.5883 105.014 44.1568C104.652 45.8985 103.553 47.4456 101.957 48.4687C100.259 49.5543 98.2002 50.0171 96.1811 50.2868C93.8666 50.5986 91.5055 50.6684 89.1735 50.8131L81.5091 51.2896C77.3258 51.5501 73.0008 51.8255 69.1224 53.449C65.4533 54.989 62.8044 57.9388 62.3094 61.6318C61.7999 65.4439 63.9395 69.1597 67.3911 71.2486C68.2932 71.7974 69.2726 72.2276 70.2925 72.5525C70.6297 72.6609 71.3612 72.7717 71.4019 72.2883C71.4427 71.8048 70.6179 71.443 70.2504 71.317C66.2723 69.9547 64.1585 66.0198 64.7052 62.2745C65.2519 58.5291 68.5359 55.5386 72.5011 54.2773C76.8249 52.9017 81.5316 52.8584 86.041 52.581C88.6445 52.4183 91.248 52.2556 93.8516 52.093C96.0664 51.9544 98.3139 51.7989 100.46 51.2399C102.453 50.7233 104.309 49.8471 105.659 48.3824C106.894 47.042 107.467 45.3199 107.537 43.5935C107.688 39.8306 105.78 36.202 103.755 33.0455C101.348 29.271 98.2023 25.8751 94.5433 23.056C91.256 20.5193 87.4405 18.0599 83.2206 17.0311C79.5358 16.1271 75.3639 16.6735 73.4476 20.0625C71.3512 23.7627 72.9628 27.869 75.0927 31.1766C75.661 32.0637 76.2821 32.9213 76.9033 33.7789C77.2161 34.2095 77.9556 34.5453 78.5163 34.5236C79.052 34.5033 79.2193 34.189 78.9289 33.7839V33.7839Z" fill="#A1A1E4"/>
<path d="M57.4571 74.4033C56.0946 75.0284 55.7529 76.5324 56.114 77.7742C56.5787 79.3774 58.3537 80.4001 60.0555 80.6933C60.8428 80.8278 61.672 80.8074 62.4551 80.6328C62.8321 80.5482 63.1987 80.4259 63.5513 80.2776C63.9039 80.1292 64.4511 79.9364 64.54 79.565C64.6864 78.9423 64.3767 78.1065 64.0784 77.5567C63.7049 76.858 63.1719 76.2326 62.5395 75.7079C60.8357 74.2994 58.5631 73.612 56.3607 73.135C56.0212 73.061 55.4717 73.1356 55.5658 73.5547C55.6598 73.9738 56.274 74.3161 56.6916 74.4395C58.1109 74.8581 59.6889 75.1883 60.7508 75.9771C61.6161 76.6195 62.2573 77.6901 62.1852 78.8323L62.342 78.5529C61.6888 78.9575 60.9247 79.2496 60.1258 79.2875C59.9752 79.2954 59.7318 79.2928 59.635 79.2864C59.6562 79.2891 59.449 79.258 59.4067 79.2525L59.284 79.2322C59.3649 79.2547 59.3733 79.2543 59.284 79.2322C59.1987 79.2061 59.0194 79.1467 59.1991 79.2137C59.1693 79.2038 58.8889 79.0618 59.0229 79.135C59.1481 79.2011 58.8574 79.0214 58.8618 79.025C58.9974 79.1287 58.8031 78.9479 58.8482 79.0066C58.4919 78.5477 58.2903 77.9241 58.3638 77.2708C58.4373 76.6175 58.8534 76.0189 59.5247 75.7164C60.0404 75.4832 59.305 74.8378 59.0832 74.6927C58.6445 74.4138 57.9728 74.1701 57.4531 74.4073L57.4571 74.4033Z" fill="#A1A1E4"/>
</g>
<g clip-path="url(#clip1_956_734)">
<path d="M22.53 30.1845C19.4944 29.018 16.0339 27.6419 14.7672 24.6094C14.2239 23.3084 14.1726 21.8485 14.91 20.6027C15.5477 19.5153 16.7219 18.8193 17.9554 18.401C19.2582 17.9575 20.664 17.8103 22.0403 17.7621C23.8535 17.6979 25.6725 17.7759 27.4683 18.0009C31.0548 18.4546 34.5642 19.4598 37.7707 20.9957C40.4209 22.2664 43.2616 23.9605 44.4856 26.5803C45.0839 27.8584 45.1096 29.3021 44.56 30.6024C43.9742 31.9837 42.8551 33.1027 41.6694 34.0802C40.3115 35.2024 38.8072 36.1856 37.3578 37.2059L32.5947 40.5602C29.9952 42.3911 27.3105 44.2881 25.5623 46.8857C23.9105 49.3458 23.5982 52.3187 25.0446 54.9203C26.5387 57.6053 29.7118 59.1754 32.96 59.165C33.8104 59.1641 34.6543 59.0553 35.4741 58.8619C35.7456 58.7986 36.275 58.5802 36.07 58.2492C35.865 57.9182 35.1546 58.0101 34.8549 58.074C31.6118 58.7667 28.3505 57.0436 26.9127 54.3874C25.4749 51.7312 26.1812 48.4794 28.1594 46.0832C30.3164 43.4703 33.3608 41.5729 36.1646 39.6013C37.7822 38.4614 39.3998 37.3215 41.0174 36.1816C42.3934 35.2117 43.7826 34.2179 44.9123 33.0016C45.9628 31.8737 46.7519 30.566 46.9296 29.0759C47.0921 27.7124 46.6404 26.3634 45.8588 25.2114C44.1552 22.7007 41.1745 21.0955 38.3437 19.8443C34.9684 18.3421 31.2935 17.3797 27.5604 16.997C24.2047 16.6505 20.5419 16.5641 17.301 17.57C14.4684 18.4447 12.0132 20.4573 12.3884 23.4254C12.7953 26.6677 15.8116 28.7019 18.7829 30.01C19.5779 30.362 20.3931 30.6739 21.2084 30.9857C21.6184 31.1419 22.2608 31.0668 22.6156 30.8301C22.9546 30.6041 22.9131 30.3329 22.53 30.1845V30.1845Z" fill="#A1A1E4"/>
<path d="M28.0009 65.1648C27.413 66.113 27.9107 67.2282 28.7406 67.8936C29.811 68.7531 31.4568 68.7142 32.7054 68.2292C33.2826 68.0042 33.8128 67.6615 34.2391 67.2368C34.4441 67.0319 34.6243 66.8067 34.7828 66.5701C34.9414 66.3334 35.2054 65.9905 35.0854 65.7133C34.8825 65.2496 34.2806 64.8283 33.823 64.5887C33.2452 64.282 32.5985 64.0864 31.9354 63.9959C30.1513 63.7552 28.3421 64.2102 26.6794 64.7742C26.4229 64.8609 26.1008 65.1277 26.3628 65.3633C26.6248 65.5989 27.1886 65.5779 27.5197 65.4924C28.6445 65.2013 29.8302 64.7896 30.8995 64.8816C31.7707 64.9563 32.7009 65.3989 33.2011 66.1714L33.1693 65.9271C32.9378 66.4501 32.58 66.9438 32.0779 67.2858C31.9837 67.3507 31.824 67.4457 31.7578 67.48C31.7729 67.4734 31.623 67.5353 31.5929 67.5486L31.5033 67.5841C31.5667 67.5666 31.572 67.563 31.5033 67.5841C31.4352 67.6009 31.29 67.6335 31.4391 67.6057C31.4149 67.6112 31.1644 67.63 31.2867 67.6245C31.3999 67.6178 31.1245 67.6163 31.1291 67.6168C31.2671 67.6305 31.0539 67.5899 31.1114 67.6103C30.6596 67.4529 30.2296 67.1268 29.9646 66.6722C29.6996 66.2175 29.6839 65.6624 29.9762 65.1988C30.2003 64.8421 29.4123 64.7138 29.1984 64.7074C28.7792 64.7001 28.225 64.8081 28.0002 65.169L28.0009 65.1648Z" fill="#A1A1E4"/>
</g>
<defs>
<clipPath id="clip0_956_734">
<rect width="43.9314" height="66.4566" fill="white" transform="matrix(0.761939 0.623402 -0.714045 0.723648 81.073 12.0131)"/>
</clipPath>
<clipPath id="clip1_956_734">
<rect width="35.1377" height="50.9026" fill="white" transform="matrix(0.99369 0.129258 -0.1546 0.985496 13.4988 15.1553)"/>
</clipPath>
</defs>
</svg>
