<svg width="147" height="147" viewBox="0 0 147 147" fill="none" xmlns="http://www.w3.org/2000/svg">
<g clip-path="url(#clip0_956_702)">
<path fill-rule="evenodd" clip-rule="evenodd" d="M67.4499 54.1366C66.1786 50.8059 66.156 47.152 67.879 43.287C73.2096 31.3313 83.6413 27.6166 95.2902 28.5031C112.3 29.7982 131.923 41.0492 141.222 49.9887C141.663 50.4116 141.675 51.1114 141.252 51.5496C140.829 51.9905 140.129 52.0053 139.688 51.5824C130.663 42.9052 111.629 31.9649 95.121 30.7068C84.4249 29.8931 74.7936 33.2068 69.899 44.1886C68.4399 47.4559 68.4694 50.5394 69.537 53.3583C71.3899 52.6889 73.2372 52.0808 75.076 51.5362C80.1522 50.0343 93.8722 48.6204 103.478 51.1441C110.368 52.9564 115.138 56.7866 114.029 63.5947C113.412 67.3787 110.674 69.8054 106.681 70.9757C101.193 72.5878 93.2306 71.7731 85.8555 69.1154C79.7149 66.9037 73.9908 63.4256 70.4185 59.1075C69.6354 58.1569 68.9501 57.1688 68.3854 56.1436C42.8642 65.9142 17.375 87.0359 4.64535 110.549C4.35331 111.083 3.68418 111.285 3.14676 110.993C2.60897 110.703 2.41005 110.032 2.69932 109.497C15.6385 85.6013 41.5054 64.1228 67.4499 54.1366ZM70.4927 55.3624C72.2354 54.7373 73.9733 54.1679 75.7034 53.6564C80.5682 52.2188 93.7115 50.8645 102.915 53.2831C108.563 54.7665 112.756 57.6601 111.848 63.2399C111.369 66.17 109.15 67.9465 106.059 68.8562C102.659 69.8534 98.2424 69.8121 93.6436 68.9551C86.6617 67.654 79.2631 64.464 74.3271 59.9892C72.7627 58.5724 71.4498 57.0235 70.4927 55.3624Z" fill="#A1A1E4"/>
<path fill-rule="evenodd" clip-rule="evenodd" d="M43.1554 95.826C29.9757 96.2857 15.119 102.846 4.39143 110.633C3.89813 110.991 3.20656 110.881 2.84838 110.387C2.4902 109.894 2.5981 109.202 3.0914 108.844C14.1533 100.812 29.4905 94.0919 43.0776 93.617C43.6858 93.5953 44.1981 94.0729 44.2194 94.6838C44.2412 95.292 43.7636 95.8042 43.1554 95.826Z" fill="#A1A1E4"/>
<path fill-rule="evenodd" clip-rule="evenodd" d="M2.87942 108.672C9.55559 99.9553 12.2664 85.5643 10.9647 74.6293C10.8921 74.0227 11.3245 73.4705 11.9307 73.4006C12.5373 73.328 13.0867 73.76 13.1593 74.3666C14.5227 85.8222 11.6282 100.884 4.63392 110.016C4.26421 110.5 3.56774 110.592 3.08303 110.222C2.59869 109.85 2.50694 109.156 2.87942 108.672Z" fill="#A1A1E4"/>
</g>
<defs>
<clipPath id="clip0_956_702">
<rect width="130" height="130" fill="white" transform="matrix(-0.134323 0.990938 0.990938 0.134323 17.462 0)"/>
</clipPath>
</defs>
</svg>
