<svg width="209" height="149" viewBox="0 0 209 149" fill="none" xmlns="http://www.w3.org/2000/svg">
<path d="M0.800139 100.246C28.0457 84.5159 62.1021 73.6351 93.9674 76.6262C102.633 77.4396 144.838 81.224 140.65 96.8538C138.645 104.34 130.611 100.761 126.814 97.2328C119.338 90.2866 114.034 84.1145 110.123 74.3713C104.086 59.3321 99.177 36.3547 116.452 27.0288C123.907 23.004 134.435 29.2505 138.874 34.8532C143.227 40.3462 145.455 46.4958 148.119 52.8818C150.285 58.0721 149.511 57.3969 153.352 53.2624C162.994 42.8852 185.644 39.8494 184.097 59.6841C183.228 70.8127 177.273 79.0809 171.413 87.956C169.212 91.2897 165.615 97.1464 162.232 99.3446C158.548 101.738 158.358 96.2966 160.063 93.8824C164.301 87.8801 168.384 85.8957 175.538 87.8126C182.008 89.5463 189.244 96.8775 187.681 104.347C186.813 108.492 188.114 107.769 190.328 105.057C192.046 102.952 195.666 95.7285 194.963 98.3526C194.715 99.2771 192.613 106.917 191.569 107.205C187.852 108.234 183.482 107.1 179.731 107.325" stroke="#A1A1E4" stroke-width="1.6" stroke-linecap="round"/>
</svg>
