<svg width="100" height="92" viewBox="0 0 100 92" fill="none" xmlns="http://www.w3.org/2000/svg">
<g clip-path="url(#clip0_956_723)">
<path d="M95.1084 28.9098C95.5927 28.0952 96.762 27.7557 97.7236 28.2125C98.6571 28.6743 98.9591 29.7005 98.4932 30.486L98.4922 30.4869C78.5013 64.3226 38.5305 77.9032 1.4541 58.8365C0.5343 58.3637 0.249577 57.3429 0.735352 56.5504C1.24109 55.7445 2.42073 55.4234 3.36719 55.9098C38.4396 73.9293 76.2138 60.9027 95.1084 28.9098Z" fill="#A1A1E4" stroke="#F9F9F9"/>
<path d="M32.8988 29.5508C36.5448 29.5508 39.4193 32.2322 39.4193 35.4434C39.4191 38.6544 36.5446 41.335 32.8988 41.335C29.2531 41.3348 26.3795 38.6543 26.3793 35.4434C26.3793 32.2323 29.253 29.5509 32.8988 29.5508Z" fill="#A1A1E4" stroke="#F9F9F9"/>
<path d="M61.9606 23.0009C65.5307 23.0009 68.3434 25.6263 68.3434 28.7684C68.3432 31.9104 65.5306 34.535 61.9606 34.535C58.3905 34.535 55.5779 31.9105 55.5778 28.7684C55.5778 25.6262 58.3904 23.0009 61.9606 23.0009Z" fill="#A1A1E4" stroke="#F9F9F9"/>
</g>
<defs>
<clipPath id="clip0_956_723">
<rect width="100" height="91.0594" fill="white"/>
</clipPath>
</defs>
</svg>
