<?xml version="1.0" encoding="UTF-8"?>
<svg id="Warstwa_1" xmlns="http://www.w3.org/2000/svg" xmlns:xlink="http://www.w3.org/1999/xlink" version="1.1" viewBox="0 0 130 36">
  <!-- Generator: Adobe Illustrator 29.6.1, SVG Export Plug-In . SVG Version: 2.1.1 Build 9)  -->
  <defs>
    <style>
      .st0 {
        mask: url(#mask);
      }

      .st1 {
        fill: url(#Gradient_bez_nazwy);
      }

      .st2 {
        fill: #fff;
      }
    </style>
    <linearGradient id="Gradient_bez_nazwy" data-name="Gradient bez nazwy" x1="128.3" y1="29" x2="80.8" y2="12" gradientTransform="translate(0 38) scale(1 -1)" gradientUnits="userSpaceOnUse">
      <stop offset="0" stop-color="#a9a6fb"/>
      <stop offset="1" stop-color="#6262d2"/>
    </linearGradient>
    <mask id="mask" x="74" y="6" width="56" height="26" maskUnits="userSpaceOnUse">
      <g id="path-2-outside-1_909_255">
        <rect class="st2" x="74" y="6" width="56" height="26"/>
        <path d="M87.9,29.6c-1,0-1.9-.2-2.8-.6-.9-.4-1.6-1-2.3-1.6-.7-.7-1.3-1.4-1.9-2.3-.5-.8-1-1.6-1.4-2.4-.2.8-.3,1.5-.5,2.1-.1.6-.2,1.1-.3,1.4,0,.3-.2.6-.2.9,0,.3-.2.5-.4.7-.2.2-.4.3-.7.3-.6,0-1-.2-1.2-.6-.2-.4-.3-1-.3-1.7s0-1.4.3-2.4c.2-1,.5-2.1.8-3.3.3-1.2.7-2.5,1.2-3.8.5-1.3.9-2.6,1.5-3.8.5-1.3,1-2.4,1.5-3.4.3-.6.6-1,.9-1.2.2-.2.5-.3.9-.3s.6,0,.8.3c.2.2.3.4.3.7s0,.4-.1.6c0,.2-.2.4-.3.7-.3.8-.7,1.6-1.1,2.6-.4,1-.7,2-1.1,3.1-.3,1-.6,2-.9,3,.7-.4,1.5-.8,2.4-1.2.9-.4,1.8-.8,2.7-1.1.9-.3,1.8-.6,2.6-.8.8-.2,1.5-.3,2-.3s.8.1,1,.4c.2.3.3.5.3.8s0,.4-.2.7c-.1.2-.4.4-.8.6-1.4.5-2.8.9-4.2,1.4-1.4.5-2.9,1.1-4.6,1.7.4.7.8,1.4,1.2,2.1.5.7,1,1.4,1.5,2,.5.6,1.1,1.1,1.7,1.5.6.4,1.1.6,1.7.6.8,0,1.6-.2,2.4-.5.8-.3,1.5-.7,2.1-1.2.6-.5,1.2-1,1.7-1.4.5-.5.9-.8,1.2-1.1.2-.2.3-.3.5-.4.2,0,.4-.1.6-.1s.5,0,.6.3c.2.2.2.4.2.6,0,.2-.1.5-.4.8-.2.2-.5.5-.9,1-.4.4-.9.9-1.5,1.5-.6.5-1.2,1-1.9,1.5-.7.5-1.4.9-2.2,1.2-.8.3-1.6.5-2.4.5ZM96.6,28.3c-.4,0-.8-.1-1.1-.4-.3-.3-.5-.7-.5-1.4s0-.8.1-1.4c.1-.6.2-1.3.4-2,.2-.7.3-1.5.5-2.2.2-.7.4-1.4.6-1.9.2-.6.4-1,.5-1.3.2-.3.4-.5.5-.6.2,0,.3-.1.5-.1.3,0,.6,0,.8.3.3.2.4.6.4,1.2s0,.6-.1,1.1c0,.5-.2,1.1-.3,1.8-.1.7-.3,1.4-.4,2.1-.1.7-.3,1.4-.4,2.1-.1.6-.2,1.2-.3,1.6,0,.4-.2.6-.5.8-.2.2-.5.3-.7.3ZM99.2,14.8c-.5,0-.9-.1-1.3-.4-.4-.3-.6-.7-.6-1.3s.1-.9.4-1.2c.3-.3.5-.5.9-.7.4-.1.7-.2.9-.2s.6,0,.9.2c.3.1.6.3.8.6.2.3.4.7.4,1.2s-.1.7-.4,1c-.2.3-.6.5-.9.7-.4.2-.7.2-1,.2ZM111.8,16.2c.8-1.9,1.5-3.9,2.1-6,.1-.4.3-.7.5-.9.2-.2.6-.3,1-.3s.6.1.8.3c.2.2.3.5.3.8s-.1.8-.4,1.5c-.2.7-.5,1.6-.9,2.7-.3,1.1-.7,2.3-1,3.8-.3,1.4-.6,3-.9,4.7-.2,1.7-.4,3.5-.4,5.5s-.1,1-.3,1.3c-.2.4-.5.5-1,.5s-.9-.2-1.2-.6c-.2-.4-.4-.8-.4-1.4,0-1.1,0-2.1.1-2.8,0-.8.2-1.4.3-2-.7,1.2-1.5,2.3-2.3,3.2-.8.9-1.6,1.6-2.3,2-.7.5-1.4.7-1.9.7-.9,0-1.6-.2-2.1-.7-.5-.5-.8-1.2-.8-2.2s.2-1.6.6-2.4c.4-.8.9-1.6,1.5-2.4.6-.8,1.3-1.5,2-2.2.7-.7,1.5-1.3,2.2-1.9.7-.5,1.4-1,2.1-1.3.6-.3,1.1-.5,1.5-.5s.7.2.9.5ZM111.3,17.4c0,0-.2.1-.3.2,0,0-.2,0-.3.2-.6.4-1.2.8-1.8,1.3-.6.5-1.3,1-1.9,1.6-.6.6-1.2,1.2-1.7,1.9-.5.6-.9,1.3-1.2,1.9-.3.6-.4,1.2-.4,1.8s0,.2.1.2c0,0,.2,0,.2,0,.5,0,1.1-.2,1.7-.7.6-.5,1.2-1.1,1.8-1.9.6-.8,1.3-1.8,1.9-2.9.6-1.1,1.2-2.3,1.8-3.6ZM120.2,29.1c-.6,0-1.1,0-1.3-.3-.2-.2-.4-.4-.4-.8s.1-.5.3-.8c.2-.2.7-.4,1.4-.7.8-.2,1.6-.5,2.3-.9.8-.3,1.4-.7,1.8-1.1.5-.4.7-.8.7-1.3s-.1-.5-.3-.6c-.2-.1-.4-.2-.7-.2s-.5,0-1,.1c-.4,0-.9.1-1.4.2-.5,0-1,.2-1.5.2-.5,0-.8,0-1.2,0-.8,0-1.3-.2-1.7-.5-.4-.4-.6-.8-.6-1.3s.2-.7.5-1.2c.3-.5.7-1.1,1.2-1.7.5-.6,1.1-1.2,1.7-1.9.6-.6,1.3-1.2,1.9-1.7.7-.5,1.3-.9,1.9-1.3.6-.3,1.1-.5,1.5-.5s.8.1,1.1.4c.3.3.4.7.4,1.2s0,.5,0,.8c0,.3-.2.5-.3.7-.2.2-.4.4-.8.4-.4,0-.9,0-1.5,0-.5.4-1,.8-1.6,1.2-.5.4-1,.9-1.5,1.3-.5.5-.9.9-1.2,1.3.5-.2,1.2-.3,1.9-.4.7-.1,1.4-.2,2.1-.2s1.5.2,2.1.5c.5.3.9.7,1.2,1.2.3.5.4,1.1.4,1.7s-.2,1.4-.7,2c-.4.7-1,1.3-1.8,1.9-.7.6-1.6,1-2.4,1.3-.9.3-1.8.5-2.7.5Z"/>
      </g>
    </mask>
  </defs>
  <path class="st2" d="M8.6,28.3c-1.4,0-2.7-.3-3.8-.9-1.1-.6-2-1.5-2.6-2.6-.6-1.1-.9-2.4-.9-3.8s.3-2.7.9-3.8c.6-1.1,1.5-2,2.6-2.6,1.1-.7,2.4-1,3.8-1s3.3.5,4.5,1.4c1.2.9,2,2.2,2.3,3.9h-4c-.2-.7-.5-1.2-1.1-1.5-.5-.4-1.1-.6-1.9-.6s-1.2.2-1.8.5c-.5.3-.9.8-1.2,1.4-.3.6-.4,1.3-.4,2.2s0,1.2.3,1.8c.2.5.4.9.7,1.3.3.4.7.6,1.1.8.4.2.9.3,1.4.3s.9,0,1.3-.3c.4-.2.8-.4,1-.7.3-.3.5-.7.6-1.1h4c-.3,1.6-1.1,2.9-2.4,3.9-1.2.9-2.7,1.4-4.5,1.4ZM23.5,28.3c-1.2,0-2.1-.2-2.9-.6-.8-.4-1.3-.9-1.7-1.5-.4-.7-.5-1.4-.5-2.1s.2-1.6.6-2.3c.4-.7,1.1-1.2,2-1.5.9-.4,2-.6,3.3-.6h3.5c0-.7,0-1.3-.3-1.7-.2-.5-.5-.8-.9-1-.4-.2-.9-.3-1.6-.3s-1.3.2-1.8.5c-.5.3-.8.8-.9,1.4h-3.7c0-1,.4-1.9,1-2.6.6-.7,1.3-1.3,2.3-1.7.9-.4,2-.6,3.1-.6s2.5.2,3.4.7c1,.4,1.7,1.1,2.2,1.9.5.8.8,1.9.8,3.1v8.7h-3.2l-.4-2.1c-.2.4-.4.7-.7,1s-.6.6-1,.8c-.4.2-.8.4-1.3.5-.5.1-1,.2-1.5.2ZM24.4,25.4c.5,0,.9,0,1.3-.3.4-.2.7-.4,1-.7.3-.3.5-.7.6-1.1.2-.4.3-.8.3-1.3h0s-2.9,0-2.9,0c-.6,0-1,0-1.4.2-.4.1-.6.3-.8.6-.2.3-.3.6-.3.9s0,.7.3.9c.2.2.4.4.7.6.3.1.7.2,1.1.2ZM35.1,28v-14h3.3l.4,2.6c.3-.6.8-1.1,1.3-1.6.5-.4,1.1-.8,1.8-1,.7-.2,1.4-.4,2.2-.4v4h-1.3c-.6,0-1.1,0-1.6.2-.5.1-.9.3-1.2.6-.4.3-.6.7-.8,1.2-.2.5-.3,1.1-.3,1.9v6.5h-3.8ZM53,28.3c-1.4,0-2.7-.3-3.8-.9-1.1-.6-1.9-1.5-2.5-2.5-.6-1.1-.9-2.4-.9-3.8s.3-2.8.9-3.9c.6-1.1,1.4-2,2.5-2.6,1.1-.7,2.4-1,3.8-1s2.6.3,3.7.9c1,.6,1.8,1.4,2.4,2.5.6,1,.9,2.2.9,3.5v.6c0,.2,0,.5,0,.7h-11.4v-2.3h7.7c0-.9-.4-1.6-1-2.1-.6-.5-1.3-.8-2.2-.8s-1.2.1-1.8.4c-.5.3-1,.7-1.3,1.3-.3.6-.4,1.3-.4,2.3v.8c0,.8.1,1.4.4,2,.3.6.7,1,1.2,1.3.5.3,1.1.4,1.8.4s1.3-.1,1.7-.4c.5-.3.8-.7,1-1.1h3.8c-.3.9-.7,1.7-1.3,2.4-.6.7-1.4,1.3-2.3,1.7-.9.4-1.9.6-3,.6ZM72.1,28v-3.5h-9.6v-3l9.1-13h4.3v12.7h2.5v3.3h-2.5v3.5h-3.8ZM66.5,21.2h5.8v-8.6l-5.8,8.6Z"/>
  <path class="st1" d="M87.9,29.6c-1,0-1.9-.2-2.8-.6-.9-.4-1.6-1-2.3-1.6-.7-.7-1.3-1.4-1.9-2.3-.5-.8-1-1.6-1.4-2.4-.2.8-.3,1.5-.5,2.1-.1.6-.2,1.1-.3,1.4,0,.3-.2.6-.2.9,0,.3-.2.5-.4.7-.2.2-.4.3-.7.3-.6,0-1-.2-1.2-.6-.2-.4-.3-1-.3-1.7s0-1.4.3-2.4c.2-1,.5-2.1.8-3.3.3-1.2.7-2.5,1.2-3.8.5-1.3.9-2.6,1.5-3.8.5-1.3,1-2.4,1.5-3.4.3-.6.6-1,.9-1.2.2-.2.5-.3.9-.3s.6,0,.8.3c.2.2.3.4.3.7s0,.4-.1.6c0,.2-.2.4-.3.7-.3.8-.7,1.6-1.1,2.6-.4,1-.7,2-1.1,3.1-.3,1-.6,2-.9,3,.7-.4,1.5-.8,2.4-1.2.9-.4,1.8-.8,2.7-1.1.9-.3,1.8-.6,2.6-.8.8-.2,1.5-.3,2-.3s.8.1,1,.4c.2.3.3.5.3.8s0,.4-.2.7c-.1.2-.4.4-.8.6-1.4.5-2.8.9-4.2,1.4-1.4.5-2.9,1.1-4.6,1.7.4.7.8,1.4,1.2,2.1.5.7,1,1.4,1.5,2,.5.6,1.1,1.1,1.7,1.5.6.4,1.1.6,1.7.6.8,0,1.6-.2,2.4-.5.8-.3,1.5-.7,2.1-1.2.6-.5,1.2-1,1.7-1.4.5-.5.9-.8,1.2-1.1.2-.2.3-.3.5-.4.2,0,.4-.1.6-.1s.5,0,.6.3c.2.2.2.4.2.6,0,.2-.1.5-.4.8-.2.2-.5.5-.9,1-.4.4-.9.9-1.5,1.5-.6.5-1.2,1-1.9,1.5-.7.5-1.4.9-2.2,1.2-.8.3-1.6.5-2.4.5ZM96.6,28.3c-.4,0-.8-.1-1.1-.4-.3-.3-.5-.7-.5-1.4s0-.8.1-1.4c.1-.6.2-1.3.4-2,.2-.7.3-1.5.5-2.2.2-.7.4-1.4.6-1.9.2-.6.4-1,.5-1.3.2-.3.4-.5.5-.6.2,0,.3-.1.5-.1.3,0,.6,0,.8.3.3.2.4.6.4,1.2s0,.6-.1,1.1c0,.5-.2,1.1-.3,1.8-.1.7-.3,1.4-.4,2.1-.1.7-.3,1.4-.4,2.1-.1.6-.2,1.2-.3,1.6,0,.4-.2.6-.5.8-.2.2-.5.3-.7.3ZM99.2,14.8c-.5,0-.9-.1-1.3-.4-.4-.3-.6-.7-.6-1.3s.1-.9.4-1.2c.3-.3.5-.5.9-.7.4-.1.7-.2.9-.2s.6,0,.9.2c.3.1.6.3.8.6.2.3.4.7.4,1.2s-.1.7-.4,1c-.2.3-.6.5-.9.7-.4.2-.7.2-1,.2ZM111.8,16.2c.8-1.9,1.5-3.9,2.1-6,.1-.4.3-.7.5-.9.2-.2.6-.3,1-.3s.6.1.8.3c.2.2.3.5.3.8s-.1.8-.4,1.5c-.2.7-.5,1.6-.9,2.7-.3,1.1-.7,2.3-1,3.8-.3,1.4-.6,3-.9,4.7-.2,1.7-.4,3.5-.4,5.5s-.1,1-.3,1.3c-.2.4-.5.5-1,.5s-.9-.2-1.2-.6c-.2-.4-.4-.8-.4-1.4,0-1.1,0-2.1.1-2.8,0-.8.2-1.4.3-2-.7,1.2-1.5,2.3-2.3,3.2-.8.9-1.6,1.6-2.3,2-.7.5-1.4.7-1.9.7-.9,0-1.6-.2-2.1-.7-.5-.5-.8-1.2-.8-2.2s.2-1.6.6-2.4c.4-.8.9-1.6,1.5-2.4.6-.8,1.3-1.5,2-2.2.7-.7,1.5-1.3,2.2-1.9.7-.5,1.4-1,2.1-1.3.6-.3,1.1-.5,1.5-.5s.7.2.9.5ZM111.3,17.4c0,0-.2.1-.3.2,0,0-.2,0-.3.2-.6.4-1.2.8-1.8,1.3-.6.5-1.3,1-1.9,1.6-.6.6-1.2,1.2-1.7,1.9-.5.6-.9,1.3-1.2,1.9-.3.6-.4,1.2-.4,1.8s0,.2.1.2c0,0,.2,0,.2,0,.5,0,1.1-.2,1.7-.7.6-.5,1.2-1.1,1.8-1.9.6-.8,1.3-1.8,1.9-2.9.6-1.1,1.2-2.3,1.8-3.6ZM120.2,29.1c-.6,0-1.1,0-1.3-.3-.2-.2-.4-.4-.4-.8s.1-.5.3-.8c.2-.2.7-.4,1.4-.7.8-.2,1.6-.5,2.3-.9.8-.3,1.4-.7,1.8-1.1.5-.4.7-.8.7-1.3s-.1-.5-.3-.6c-.2-.1-.4-.2-.7-.2s-.5,0-1,.1c-.4,0-.9.1-1.4.2-.5,0-1,.2-1.5.2-.5,0-.8,0-1.2,0-.8,0-1.3-.2-1.7-.5-.4-.4-.6-.8-.6-1.3s.2-.7.5-1.2c.3-.5.7-1.1,1.2-1.7.5-.6,1.1-1.2,1.7-1.9.6-.6,1.3-1.2,1.9-1.7.7-.5,1.3-.9,1.9-1.3.6-.3,1.1-.5,1.5-.5s.8.1,1.1.4c.3.3.4.7.4,1.2s0,.5,0,.8c0,.3-.2.5-.3.7-.2.2-.4.4-.8.4-.4,0-.9,0-1.5,0-.5.4-1,.8-1.6,1.2-.5.4-1,.9-1.5,1.3-.5.5-.9.9-1.2,1.3.5-.2,1.2-.3,1.9-.4.7-.1,1.4-.2,2.1-.2s1.5.2,2.1.5c.5.3.9.7,1.2,1.2.3.5.4,1.1.4,1.7s-.2,1.4-.7,2c-.4.7-1,1.3-1.8,1.9-.7.6-1.6,1-2.4,1.3-.9.3-1.8.5-2.7.5Z"/>
  <g class="st0">
    <path class="st2" d="M85.2,29l.6-1.3h0s0,0,0,0l-.6,1.3ZM82.8,27.3l-1,1h0s0,0,0,0l1-1ZM80.9,25.1l-1.2.8h0s0,0,0,0l1.2-.8ZM79.5,22.7l1.3-.6-1.8-3.7-.9,4,1.4.3ZM79.1,24.7l-1.4-.3h0s0,0,0,0l1.4.3ZM78.7,26.2l1.4.3h0s0,0,0,0l-1.4-.3ZM78.5,27l-1.3-.4h0s0,0,0,0l1.4.4ZM78.1,27.7l-1-.9h0l1,.9ZM76.2,27.3l-1.3.5h0s0,0,0,0l1.3-.5ZM76.3,23.3l-1.4-.3h0s0,0,0,0l1.4.3ZM77.1,20l1.3.4-1.3-.4ZM78.2,16.2l-1.3-.5h0s1.3.5,1.3.5ZM79.7,12.4l1.3.5h0s-1.3-.5-1.3-.5ZM81.2,9l-1.2-.6h0s0,0,0,0l1.2.6ZM82.1,7.8l.8,1.2h0s0,0,0,0l-.8-1.1ZM83.8,7.8l-1,1h0l1-1ZM83.9,9.1l-1.3-.6h0l1.3.6ZM83.6,9.8l1.3.6h0s0,0,0,0l-1.3-.5ZM82.5,12.4l1.3.5h0s-1.3-.5-1.3-.5ZM81.5,15.5l1.3.4h0s-1.3-.4-1.3-.4ZM80.6,18.5l-1.3-.4-.9,3.4,3-1.8-.7-1.2ZM83,17.2l.6,1.3h0s0,0,0,0l-.6-1.3ZM85.7,16.1l.5,1.3h0s-.5-1.3-.5-1.3ZM88.2,15.3l.3,1.4h0l-.3-1.4ZM91.2,15.4l1-.9h0l-1,.9ZM90.5,17.5l.4,1.3h0s0,0,0,0l-.5-1.3ZM86.3,18.9l-.5-1.3h0s.5,1.3.5,1.3ZM81.7,20.6l-.5-1.3-1.4.6.7,1.4,1.2-.6ZM82.9,22.8l-1.2.8h0s1.2-.8,1.2-.8ZM84.4,24.8l-1.1.9h0s0,0,0,0l1.1-.9ZM86.1,26.3l-.8,1.2h0s0,0,0,0l.8-1.2ZM90.2,26.4l.5,1.3h0s0,0,0,0l-.6-1.3ZM92.3,25.2l.8,1.1h0s0,0,0,0l-.8-1.1ZM94,23.8l-.9-1h0s0,0,0,0l1,1ZM95.2,22.7l.9,1h0s0,0,0,0l-1-1ZM95.6,22.4l-.6-1.3h0s0,0,0,0l.6,1.3ZM96.9,22.5l-1.1.9h0s0,0,0,0l1-1ZM97.1,23.2h1.4c0,0,0,0,0,0h-1.4ZM96.7,23.9l-1-1h0s1,1,1,1ZM95.8,24.9l-1-.9h0s1,.9,1,.9ZM94.3,26.4l1,1h0s-1-1-1-1ZM92.5,27.9l.8,1.1h0s-.8-1.1-.8-1.1ZM90.3,29.1l-.5-1.3h0s0,0,0,0l.5,1.3ZM87.9,29.6v-1.4c-.8,0-1.5-.2-2.2-.5l-.6,1.3-.6,1.3c1.1.5,2.2.8,3.4.8v-1.4ZM85.2,29l.6-1.3c-.7-.3-1.4-.8-2-1.4l-1,1-1,1c.8.8,1.7,1.4,2.7,1.9l.6-1.3ZM82.8,27.3l1-1c-.6-.6-1.2-1.3-1.7-2l-1.2.8-1.2.8c.6.9,1.3,1.7,2.1,2.5l1-1ZM80.9,25.1l1.2-.8c-.5-.8-.9-1.5-1.3-2.3l-1.3.6-1.3.6c.4.9.9,1.7,1.5,2.6l1.2-.8ZM79.5,22.7l-1.4-.3c-.2.8-.3,1.5-.5,2l1.4.3,1.4.3c.2-.6.3-1.3.5-2.1l-1.4-.3ZM79.1,24.7l-1.4-.3c-.1.6-.2,1.1-.3,1.4l1.4.3,1.4.3c0-.4.2-.9.3-1.4l-1.4-.3ZM78.7,26.2l-1.4-.3c0,.3-.1.5-.2.8l1.3.4,1.3.4c0-.3.2-.6.3-.9l-1.4-.3ZM78.5,27l-1.4-.4c0,0,0,0,0,0,0,0,0,0,0,0l1,.9,1,.9c.3-.4.6-.8.7-1.3l-1.4-.4ZM78.1,27.7l-1-.9c0,0,.2-.1.2-.2,0,0,.1,0,.1,0v2.8c.6,0,1.2-.2,1.7-.7l-1-.9ZM77.4,28v-1.4c-.2,0-.2,0-.1,0,0,0,0,0,.1,0,0,0,0,0,0,.1l-1.3.5-1.3.5c.2.5.6.9,1.1,1.2.5.2,1,.3,1.4.3v-1.4ZM76.2,27.3l1.3-.5c0-.2-.2-.6-.2-1.2h-2.8c0,.8.1,1.5.4,2.2l1.3-.5ZM76,25.7h1.4c0-.5,0-1.2.3-2.1l-1.4-.3-1.4-.3c-.2,1-.3,1.9-.3,2.6h1.4ZM76.3,23.3l1.4.3c.2-.9.5-2,.8-3.2l-1.3-.4-1.3-.4c-.3,1.2-.6,2.4-.8,3.4l1.4.3ZM77.1,20l1.3.4c.3-1.2.7-2.4,1.1-3.7l-1.3-.5-1.3-.5c-.4,1.3-.8,2.6-1.2,3.9l1.3.4ZM78.2,16.2l1.3.5c.4-1.3.9-2.5,1.4-3.7l-1.3-.5-1.3-.5c-.5,1.3-1,2.6-1.5,3.9l1.3.5ZM79.7,12.4l1.3.5c.5-1.2,1-2.3,1.5-3.3l-1.2-.6-1.2-.6c-.5,1.1-1.1,2.2-1.6,3.5l1.3.5ZM81.2,9l1.2.6c.1-.3.3-.5.3-.6,0-.1.1-.1,0,0l-.8-1.2-.8-1.2c-.3.2-.6.5-.8.8-.2.3-.4.6-.6.9l1.2.6ZM82.1,7.8l.8,1.1s0,0,0,0c0,0,0,0,0,0v-2.8c-.6,0-1.2.2-1.7.5l.8,1.1ZM83,7.5v1.4c0,0,0,0,0,0,0,0-.1,0-.2-.1l1-1,1-1c-.5-.5-1.2-.7-1.8-.7v1.4ZM83.8,7.8l-1,1c0,0,0-.1-.1-.2,0,0,0-.1,0,0h2.8c0-.6-.2-1.2-.7-1.7l-1,1ZM84,8.5h-1.4s0,0,0,0c0,0,0,0,0,0,0,0,0,0,0,0l1.3.6,1.3.6c.2-.4.3-.7.3-1.2h-1.4ZM83.9,9.1l-1.3-.6c-.1.2-.2.5-.3.8l1.3.5,1.3.5c0-.3.2-.5.2-.6l-1.3-.6ZM83.6,9.8l-1.3-.6c-.4.8-.7,1.7-1.1,2.7l1.3.5,1.3.5c.4-1,.7-1.8,1-2.5l-1.3-.6ZM82.5,12.4l-1.3-.5c-.4,1-.7,2.1-1.1,3.1l1.3.4,1.3.4c.3-1,.7-2,1-3l-1.3-.5ZM81.5,15.5l-1.3-.4c-.3,1.1-.7,2.1-.9,3l1.3.4,1.3.4c.3-.9.6-1.9.9-2.9l-1.3-.4ZM80.6,18.5l.7,1.2c.7-.4,1.4-.8,2.3-1.2l-.6-1.3-.6-1.3c-.9.4-1.8.9-2.5,1.3l.7,1.2ZM83,17.2l.6,1.3c.8-.4,1.7-.7,2.6-1.1l-.5-1.3-.5-1.3c-.9.3-1.9.7-2.8,1.2l.6,1.3ZM85.7,16.1l.5,1.3c.9-.3,1.7-.6,2.4-.7l-.3-1.4-.3-1.4c-.9.2-1.8.5-2.7.8l.5,1.3ZM88.2,15.3l.3,1.4c.7-.2,1.3-.2,1.7-.2v-2.8c-.7,0-1.5.1-2.3.3l.3,1.4ZM90.2,15v1.4c0,0,0,0,0,0,0,0,0,0,0,0,0,0,0,0,0,0l1-.9,1-.9c-.6-.6-1.3-.8-2-.8v1.4ZM91.2,15.4l-1,.9s0,0,0,0c0,0,0,0,0,0,0,0,0,0,0,0h2.8c0-.7-.3-1.3-.7-1.7l-1,.9ZM91.5,16.2h-1.4s0,0,0,0c0,0,0,0,0,0l1.2.7,1.2.7c.2-.4.4-.9.4-1.4h-1.4ZM91.3,16.9l-1.2-.7c0-.1.1-.1.1-.1,0,0,0,0,0,0,0,0,0,0-.2,0l.5,1.3.5,1.3c.5-.2,1.2-.5,1.5-1.2l-1.2-.7ZM90.5,17.5l-.4-1.3c-1.4.5-2.8,1-4.2,1.4l.5,1.3.5,1.3c1.4-.5,2.8-1,4.2-1.4l-.4-1.3ZM86.3,18.9l-.5-1.3c-1.4.5-3,1.1-4.7,1.7l.5,1.3.5,1.3c1.7-.7,3.2-1.2,4.6-1.7l-.5-1.3ZM81.7,20.6l-1.2.6c.4.7.8,1.5,1.3,2.3l1.2-.8,1.2-.8c-.4-.7-.8-1.4-1.2-2l-1.2.6ZM82.9,22.8l-1.2.8c.5.8,1,1.5,1.6,2.2l1.1-.9,1.1-.9c-.5-.6-1-1.2-1.4-1.9l-1.2.8ZM84.4,24.8l-1.1.9c.6.7,1.2,1.3,1.9,1.7l.8-1.2.8-1.2c-.5-.3-.9-.7-1.4-1.3l-1.1.9ZM86.1,26.3l-.8,1.2c.7.5,1.6.8,2.5.8v-2.8c-.2,0-.5,0-.9-.3l-.8,1.2ZM87.8,26.9v1.4c1,0,2-.2,2.9-.6l-.5-1.3-.5-1.3c-.6.3-1.2.4-1.8.4v1.4ZM90.2,26.4l.6,1.3c.9-.4,1.6-.8,2.4-1.4l-.8-1.1-.8-1.1c-.6.4-1.2.8-1.9,1.1l.6,1.3ZM92.3,25.2l.8,1.1c.7-.5,1.3-1,1.8-1.5l-1-1-1-1c-.4.4-1,.9-1.6,1.3l.8,1.1ZM94,23.8l.9,1c.5-.5.9-.8,1.2-1.1l-.9-1-.9-1c-.3.3-.7.6-1.2,1.1l.9,1ZM95.2,22.7l1,1s0,0,0,0c0,0,0,0,0,0l-.6-1.3-.6-1.3c-.3.2-.6.4-.8.6l1,1ZM95.6,22.4l.6,1.3s0,0,0,0c0,0,0,0,0,0,0,0,0,0,0,0v-2.8c-.4,0-.8,0-1.2.2l.6,1.3ZM96.2,22.3v1.4s0,0-.2,0c-.1,0-.2-.1-.3-.2l1.1-.9,1.1-.9c-.5-.6-1.1-.8-1.7-.8v1.4ZM96.9,22.5l-1,1c0,0-.1-.2-.2-.3,0,0,0-.2,0-.2h1.4c0,0,1.4.2,1.4.2,0-.6-.1-1.2-.6-1.7l-1,1ZM97.1,23.2h-1.4c0-.2,0-.2,0-.3,0,0,0,0,0,0l1,1,1,1c.4-.4.7-.9.8-1.6h-1.4ZM96.7,23.9l-1-1c-.2.2-.5.6-.9,1l1,.9,1,.9c.4-.5.7-.8.9-1l-1-1ZM95.8,24.9l-1-.9c-.4.4-.8.9-1.4,1.4l1,1,1,1c.6-.6,1.1-1.1,1.5-1.6l-1-.9ZM94.3,26.4l-1-1c-.5.5-1.1,1-1.7,1.4l.8,1.1.8,1.1c.7-.5,1.4-1.1,2-1.7l-1-1ZM92.5,27.9l-.8-1.1c-.6.4-1.2.8-1.9,1l.5,1.3.5,1.3c.9-.4,1.7-.8,2.5-1.4l-.8-1.1ZM90.3,29.1l-.5-1.3c-.6.3-1.2.4-1.8.4v2.8c1,0,2-.2,2.9-.6l-.5-1.3ZM95.5,27.9l-.9,1h0s0,0,0,0l.9-1.1ZM95.2,25.1l-1.4-.2h0s0,0,0,0l1.4.2ZM95.6,23.1l1.4.3h0s-1.4-.3-1.4-.3ZM96.1,20.9l-1.3-.4h0s0,0,0,0l1.4.4ZM96.7,19l1.3.5h0s-1.3-.5-1.3-.5ZM97.2,17.7l-1.2-.7h0s0,0,0,0l1.2.7ZM97.7,17.1l.6,1.3h0s0,0,0,0l-.6-1.3ZM99.1,17.2l-.8,1.1h0s0,0,0,0l.8-1.2ZM99.3,19.5l1.4.2h0s-1.4-.2-1.4-.2ZM99,21.4l-1.4-.3h0l1.4.3ZM98.6,23.5l-1.4-.3h0s0,0,0,0l1.4.3ZM98.1,25.6l-1.4-.3h0s0,0,0,0l1.4.3ZM97.8,27.2l-1.4-.3,1.4.3ZM97.3,28l-.8-1.1h0s0,0,0,0l.9,1.1ZM97.8,14.4l-.8,1.1h0s0,0,0,0l.8-1.2ZM97.6,11.8l1.1.9h0l-1.1-.9ZM98.5,11.1l.5,1.3h0s0,0,0,0l-.5-1.3ZM100.3,11.1l-.5,1.3h0s0,0,0,0l.4-1.3ZM101.1,11.7l-1.1.9h0s0,0,0,0l1-.9ZM101.1,13.9l1,.9h0s0,0,0,0l-1.1-.9ZM100.2,14.5l-.6-1.3h0s0,0,0,0l.6,1.3ZM96.6,28.3v-1.4c0,0-.1,0-.2,0l-.9,1.1-.9,1.1c.6.5,1.3.8,2,.8v-1.4ZM95.5,27.9l.9-1s0,0,0,0c0,0,0-.2,0-.4h-2.8c0,.8.2,1.7.9,2.4l.9-1ZM95.1,26.5h1.4c0-.2,0-.6.1-1.2l-1.4-.2-1.4-.2c0,.6-.1,1.2-.1,1.6h1.4ZM95.2,25.1l1.4.2c0-.6.2-1.2.4-1.9l-1.4-.3-1.4-.3c-.2.7-.3,1.4-.4,2.1l1.4.2ZM95.6,23.1l1.4.3c.2-.7.3-1.4.5-2.1l-1.4-.4-1.4-.4c-.2.7-.4,1.5-.5,2.2l1.4.3ZM96.1,20.9l1.3.4c.2-.7.4-1.3.6-1.9l-1.3-.5-1.3-.5c-.2.6-.4,1.3-.6,2l1.3.4ZM96.7,19l1.3.4c.2-.6.3-.9.4-1.1l-1.2-.7-1.2-.7c-.2.4-.4.9-.6,1.5l1.3.4ZM97.2,17.7l1.2.7c0,0,0-.1,0-.1,0,0,0,0,0,0,0,0,0,0,0,0,0,0,0,0-.2.1l-.6-1.3-.6-1.3c-.3.2-.6.4-.7.6-.2.2-.3.4-.4.6l1.2.7ZM97.7,17.1l.6,1.3s0,0-.1,0v-2.8c-.4,0-.8.1-1.1.3l.6,1.3ZM98.3,17v1.4s0,0,0,0c0,0,0,0,0,0,0,0,0,0,0,0,0,0,0,0,0,0l.8-1.1.8-1.1c-.5-.3-1-.5-1.6-.5v1.4ZM99.1,17.2l-.8,1.2c0,0-.2-.1-.2-.2,0,0,0,0,0-.1,0,0,0,0,0,0,0,0,0,.1,0,.2h2.8c0-.7-.1-1.7-1-2.3l-.8,1.2ZM99.5,18.4h-1.4c0,.1,0,.4-.1.9l1.4.2,1.4.2c0-.5.2-1,.2-1.4h-1.4ZM99.3,19.5l-1.4-.2c0,.5-.2,1.1-.3,1.8l1.4.3,1.4.3c.1-.7.2-1.3.3-1.8l-1.4-.2ZM99,21.4l-1.4-.3c-.1.7-.3,1.4-.4,2.1l1.4.3,1.4.3c.2-.7.3-1.5.4-2.2l-1.4-.3ZM98.6,23.5l-1.4-.3c-.1.7-.3,1.4-.4,2.1l1.4.3,1.4.3c.1-.7.3-1.4.4-2.1l-1.4-.3ZM98.1,25.6l-1.4-.3c-.1.6-.2,1.2-.3,1.6l1.4.3,1.4.3c0-.4.2-1,.3-1.6l-1.4-.3ZM97.8,27.2l-1.4-.3c0,0,0,0,0,0,0,0,0,0,0,0,0,0,0,0,0,0l.8,1.1.8,1.1c.6-.4.9-1.1,1-1.7l-1.4-.3ZM97.3,28l-.9-1.1s0,0,0,0c0,0,.1,0,.2,0v2.8c.6,0,1.2-.3,1.6-.6l-.9-1.1ZM99.2,14.8v-1.4c-.2,0-.4,0-.6-.2l-.8,1.2-.8,1.2c.6.4,1.4.7,2.1.7v-1.4ZM97.8,14.4l.8-1.1s0,0,0,0c0,0,0,0,0,0,0,0,0,0,0-.2h-2.8c0,1,.4,1.9,1.2,2.5l.8-1.1ZM97.2,13h1.4c0-.3,0-.3,0-.3l-1.1-.9-1.1-.9c-.5.6-.7,1.4-.7,2.1h1.4ZM97.6,11.8l1.1.9c.1-.1.2-.2.3-.2l-.5-1.3-.5-1.3c-.6.2-1.1.6-1.5,1.1l1.1.9ZM98.5,11.1l.5,1.3c.3-.1.4-.1.4-.1v-2.8c-.5,0-1,.1-1.5.3l.5,1.3ZM99.4,10.9v1.4c0,0,.2,0,.4,0l.5-1.3.5-1.3c-.4-.2-.9-.3-1.4-.3v1.4ZM100.3,11.1l-.4,1.3s0,0,.2.1l1.1-.9,1.1-.9c-.4-.5-.9-.9-1.5-1.1l-.4,1.3ZM101.1,11.7l-1,.9c0,0,0,0,0,.3h2.8c0-.7-.2-1.5-.7-2.1l-1,.9ZM101.5,12.9h-1.4s0,0,0,0c0,0,0,0,0,0s0,0,0,0c0,0,0,0,0,0l1.1.9,1.1.9c.4-.5.7-1.2.7-1.9h-1.4ZM101.1,13.9l-1-.9c-.1.1-.2.2-.4.3l.6,1.3.6,1.3c.5-.2,1-.6,1.4-1l-1-.9ZM100.2,14.5l-.6-1.3c-.2,0-.3.1-.4.1v2.8c.6,0,1.1-.1,1.6-.4l-.6-1.3ZM111.8,16.2l-1.3.6,1.3,3,1.3-3-1.3-.5ZM114,10.2l1.3.4h0s0,0,0,0l-1.3-.4ZM114.5,9.3l-1-1h0s0,0,0,0l1,1ZM116.2,9.3l-1.1.9h0s0,0,0,0l1-.9ZM116.1,11.6l1.3.4h0s-1.3-.4-1.3-.4ZM114.3,18l-1.4-.3,1.4.3ZM113.4,22.7l-1.4-.2,1.4.2ZM112.7,29.5l-1.2-.7h0s0,0,0,0l1.2.7ZM110.6,29.5l-1.2.8h0s0,0,0,0l1.2-.8ZM110.3,25.2l-1.4-.2h0s0,0,0,0h1.4ZM110.6,23.3l1.4.2-2.6-.9,1.2.7ZM108.3,26.5l-1-.9h0s1,.9,1,.9ZM106,28.5l-.8-1.2h0s0,0,0,0l.8,1.2ZM102,28.5l.9-1-.9,1ZM101.7,23.9l1.3.6h0s-1.3-.6-1.3-.6ZM103.2,21.5l1.1.8-1.1-.8ZM105.2,19.3l1,1h0s-1-1-1-1ZM107.4,17.4l.8,1.1h0s0,0,0,0l-.8-1.1ZM109.4,16.2l.6,1.3h0l-.6-1.3ZM111.3,17.4l1.3.6,2-4.5-4.1,2.7.8,1.2ZM111,17.6l.6,1.3h0s0,0,0,0l-.7-1.2ZM110.8,17.7l.7,1.2h0s0,0,0,0l-.8-1.2ZM109,19l.9,1.1h0s0,0,0,0l-.9-1.1ZM107.1,20.6l1,1h0s0,0,0,0l-1-1ZM105.4,22.5l-1.1-.9h0s1.1.9,1.1.9ZM104.2,24.4l-1.3-.6h0s1.3.6,1.3.6ZM103.9,26.4l.6-1.3h0l-.6,1.3ZM105.8,25.8l-.8-1.1h0s0,0,0,0l.9,1.1ZM107.6,23.9l-1.1-.9h0s1.1.9,1.1.9ZM109.5,21l-1.2-.7h0s1.2.7,1.2.7ZM111.8,16.2l1.3.5c.8-2,1.6-4,2.2-6.1l-1.3-.4-1.3-.4c-.6,2-1.3,3.9-2.1,5.8l1.3.5ZM114,10.2l1.3.4c0-.3.1-.3.2-.3l-1-1-1-1c-.4.4-.7,1-.9,1.6l1.3.4ZM114.5,9.3l1,1s0,0,0,0c0,0,0,0,0,0,0,0,0,0,0,0v-2.8c-.7,0-1.4.2-1.9.7l1,1ZM115.5,9v1.4s0,0,0,0c0,0-.2,0-.2-.2l1.1-.9,1.1-.9c-.5-.6-1.2-.8-1.8-.8v1.4ZM116.2,9.3l-1,.9c0,0,0-.1-.1-.2,0,0,0,0,0,0h2.8c0-.6-.2-1.2-.6-1.7l-1,.9ZM116.5,10.1h-1.4s0,0,0,.3c0,.2-.1.5-.2.8l1.3.4,1.3.4c.2-.7.4-1.4.4-1.9h-1.4ZM116.1,11.6l-1.3-.4c-.2.7-.5,1.6-.9,2.7l1.3.4,1.3.4c.3-1.1.6-2,.9-2.7l-1.3-.4ZM115.3,14.3l-1.3-.4c-.3,1.1-.7,2.4-1,3.9l1.4.3,1.4.3c.3-1.4.7-2.6,1-3.7l-1.3-.4ZM114.3,18l-1.4-.3c-.3,1.5-.6,3.1-.9,4.8l1.4.2,1.4.2c.2-1.7.5-3.2.8-4.6l-1.4-.3ZM113.4,22.7l-1.4-.2c-.2,1.8-.4,3.7-.4,5.7h2.8c0-1.9.1-3.6.3-5.3l-1.4-.2ZM113.1,28.2h-1.4c0,.4,0,.5-.1.6l1.2.7,1.2.7c.4-.6.5-1.3.5-2h-1.4ZM112.7,29.5l-1.2-.7s0,0,0,0c0,0,0,0,.1,0,0,0,.1,0,0,0v2.8c.9,0,1.8-.4,2.2-1.3l-1.2-.7ZM111.7,30v-1.4c-.1,0-.1,0,0,0,0,0,0,0,0,0,0,0,0,0,0,0l-1.2.8-1.2.8c.6.8,1.4,1.2,2.3,1.2v-1.4ZM110.6,29.5l1.2-.8c0,0-.1-.3-.1-.7h-2.8c0,.8.2,1.5.6,2.2l1.2-.8ZM110.2,28.1h1.4c0-1.1,0-2,.1-2.7h-1.4c0-.1-1.4-.3-1.4-.3,0,.8-.1,1.8-.1,3h1.4ZM110.3,25.2l1.4.2c0-.8.2-1.4.3-1.9l-1.4-.2-1.4-.2c0,.6-.2,1.2-.3,2l1.4.2ZM110.6,23.3l-1.2-.7c-.7,1.2-1.4,2.2-2.1,3l1,.9,1,.9c.9-1,1.7-2.1,2.5-3.4l-1.2-.7ZM108.3,26.5l-1-.9c-.7.8-1.4,1.4-2,1.8l.8,1.2.8,1.2c.9-.6,1.7-1.3,2.6-2.3l-1-.9ZM106,28.5l-.8-1.2c-.6.4-1,.5-1.1.5v2.8c.9,0,1.8-.4,2.7-1l-.8-1.2ZM104.1,29.2v-1.4c-.6,0-.9-.2-1.2-.4l-.9,1-.9,1c.8.8,1.9,1.1,3.1,1.1v-1.4ZM102,28.5l.9-1c-.2-.1-.3-.4-.3-1.2h-2.8c0,1.2.3,2.4,1.3,3.3l.9-1ZM101.2,26.3h1.4c0-.5.1-1.1.4-1.8l-1.3-.6-1.3-.6c-.4,1-.7,1.9-.7,2.9h1.4ZM101.7,23.9l1.3.6c.3-.7.7-1.4,1.3-2.2l-1.1-.8-1.1-.8c-.7.9-1.2,1.8-1.6,2.7l1.3.6ZM103.2,21.5l1.1.8c.6-.7,1.2-1.4,1.8-2.1l-1-1-1-1c-.8.7-1.5,1.5-2.1,2.4l1.1.8ZM105.2,19.3l1,1c.7-.7,1.4-1.2,2.1-1.7l-.8-1.1-.8-1.1c-.8.6-1.6,1.2-2.4,2l1,1ZM107.4,17.4l.8,1.1c.7-.5,1.3-.9,1.8-1.1l-.6-1.3-.6-1.3c-.7.4-1.5.8-2.3,1.4l.8,1.1ZM109.4,16.2l.6,1.3c.6-.3.9-.3.9-.3v-2.8c-.7,0-1.5.3-2.2.6l.6,1.3ZM111,15.7v1.4s0,0-.1,0c0,0-.1,0-.2-.1,0,0,0-.1,0-.1l1.3-.6,1.3-.6c-.2-.4-.5-.8-.9-1-.4-.2-.9-.3-1.2-.3v1.4ZM111.3,17.4l-.8-1.2c0,0-.1,0-.2.1l.7,1.2.7,1.2c.1,0,.3-.1.4-.2l-.8-1.2ZM111,17.6l-.6-1.3c-.1,0-.3.2-.4.2l.8,1.2.8,1.2s0,0,.1,0l-.6-1.3ZM110.8,17.7l-.7-1.2c-.6.4-1.2.8-1.9,1.4l.9,1.1.9,1.1c.6-.5,1.2-.9,1.7-1.2l-.7-1.2ZM109,19l-.9-1.1c-.7.5-1.3,1.1-2,1.7l1,1,1,1c.6-.6,1.2-1.1,1.8-1.5l-.9-1.1ZM107.1,20.6l-1-1c-.7.6-1.3,1.3-1.8,2l1.1.9,1.1.9c.5-.6,1-1.2,1.6-1.7l-1-1ZM105.4,22.5l-1.1-.9c-.6.7-1,1.4-1.4,2.2l1.3.6,1.3.6c.3-.5.6-1.1,1.1-1.6l-1.1-.9ZM104.2,24.4l-1.3-.6c-.4.8-.6,1.6-.6,2.4h2.8c0-.3,0-.7.3-1.2l-1.3-.6ZM103.8,26.2h-1.4c0,.3,0,.6.2.9.2.3.4.5.7.6l.6-1.3.6-1.3c.2,0,.3.2.5.4.1.2.2.4.2.6h-1.4ZM103.9,26.4l-.6,1.3c.2.1.5.2.9.2v-2.8c.2,0,.3,0,.4,0l-.6,1.3ZM104.1,26.5v1.4c.9,0,1.8-.4,2.5-1l-.9-1.1-.9-1.1c-.4.3-.7.4-.8.4v1.4ZM105.8,25.8l.8,1.1c.7-.6,1.4-1.3,2.1-2.2l-1.1-.8-1.1-.8c-.6.7-1.1,1.3-1.6,1.6l.8,1.1ZM107.6,23.9l1.1.9c.7-.9,1.3-1.9,2-3.1l-1.2-.7-1.2-.7c-.6,1.1-1.2,2-1.8,2.7l1.1.9ZM109.5,21l1.2.7c.7-1.1,1.3-2.4,1.9-3.7l-1.3-.6-1.3-.6c-.6,1.3-1.2,2.4-1.8,3.5l1.2.7ZM118.9,28.9l-.8,1.1h0s0,0,0,0l.8-1.2ZM118.8,27.3l1,1h0s0,0,0,0l-1-1ZM120.2,26.7l-.4-1.3h0s.4,1.3.4,1.3ZM122.5,25.8l.6,1.3h0s-.6-1.3-.6-1.3ZM124.3,24.7l-.9-1.1h0s0,0,0,0l.9,1.1ZM124.8,22.8l-.8,1.2h0s0,0,0,0l.8-1.2ZM123.1,22.7l.2,1.4h0s0,0,0,0l-.2-1.4ZM121.7,23l.2,1.4h0s0,0,0,0l-.3-1.4ZM120.3,23.2l.2,1.4h0s0,0,0,0l-.2-1.4ZM117.4,22.8l-1,1h0s0,0,0,0l.9-1ZM117.3,20.2l-1.2-.7,1.2.7ZM118.6,18.5l1.1.9-1.1-.9ZM120.3,16.7l1,1h0l-1-1ZM122.2,15l.9,1.1h0s-.9-1.1-.9-1.1ZM124.1,13.7l.7,1.2h0s0,0,0,0l-.7-1.2ZM126.7,13.7l-1,1h0s0,0,0,0l1-1ZM127.1,15.6l1.4.2h0s-1.4-.2-1.4-.2ZM126.7,16.4l1.1.9h0s0,0,0,0l-1.1-.9ZM124.4,16.8l.3-1.4h-.6c0-.1-.5.2-.5.2l.8,1.1ZM122.9,18l.9,1.1h0s-.9-1.1-.9-1.1ZM121.4,19.3l1,1h0s0,0,0,0l-1-1ZM120.2,20.7l-1.1-.8-2.4,3.4,4-1.3-.4-1.3ZM122,20.3l.2,1.4h0s0,0,0,0l-.2-1.4ZM126.2,20.5l-.7,1.2h0s0,0,0,0l.7-1.2ZM127.4,21.7l-1.3.6h0s0,0,0,0l1.2-.7ZM127.1,25.4l-1.2-.8h0l1.2.8ZM125.4,27.3l.8,1.1-.8-1.1ZM122.9,28.6l.5,1.3-.5-1.3ZM120.2,29.1v-1.4c-.3,0-.4,0-.5,0-.1,0-.1,0,0,0l-.8,1.2-.8,1.2c.6.4,1.4.5,2.1.5v-1.4ZM118.9,28.9l.8-1.1c0,0,.1.1.2.2,0,0,0,.2,0,.2h-2.8c0,.7.3,1.4,1,1.9l.8-1.1ZM118.5,28.1h1.4s0,0,0,.1c0,0,0,0,0,.1l-1-1-1-1c-.5.5-.7,1.1-.7,1.7h1.4ZM118.8,27.3l1,1c0,0,0,0,0,0,.1,0,.4-.2.7-.3l-.4-1.3-.4-1.3c-.4.1-.8.3-1.1.4-.3.1-.6.3-.9.6l1,1ZM120.2,26.7l.4,1.3c.9-.3,1.7-.6,2.5-.9l-.6-1.3-.6-1.3c-.7.3-1.4.6-2.2.8l.4,1.3ZM122.5,25.8l.6,1.3c.8-.4,1.6-.8,2.2-1.3l-.9-1.1-.9-1.1c-.3.3-.8.6-1.5.9l.6,1.3ZM124.3,24.7l.9,1.1c.7-.5,1.2-1.3,1.2-2.3h-2.8s0,0,0,0c0,0,0,0,0,0,0,0,0,.1-.2.2l.9,1.1ZM125.1,23.5h1.4c0-.7-.3-1.4-1-1.8l-.8,1.2-.8,1.2c-.1,0-.2-.2-.3-.3,0-.1,0-.2,0-.2h1.4ZM124.8,22.8l.8-1.2c-.5-.3-1-.4-1.5-.4v2.8s0,0,0,0c0,0,0,0,0,0l.8-1.2ZM124.1,22.6v-1.4c-.3,0-.8,0-1.2.1l.2,1.4.2,1.4c.4,0,.6,0,.7,0v-1.4ZM123.1,22.7l-.2-1.4c-.4,0-.9.1-1.5.3l.3,1.4.3,1.4c.5,0,.9-.2,1.3-.2l-.2-1.4ZM121.7,23l-.2-1.4c-.5,0-1,.2-1.4.2l.2,1.4.2,1.4c.5,0,1-.2,1.5-.2l-.2-1.4ZM120.3,23.2l-.2-1.4c-.4,0-.7,0-1,0v2.8c.4,0,.9,0,1.3,0l-.2-1.4ZM119.1,23.3v-1.4c-.6,0-.7-.1-.8-.1l-.9,1-.9,1c.7.7,1.7.9,2.6.9v-1.4ZM117.4,22.8l1-1c0,0-.1-.1-.1-.3h-2.8c0,.9.3,1.7,1,2.4l1-1ZM116.9,21.4h1.4c0,0,0,0,0,0,0-.1.1-.3.2-.5l-1.2-.7-1.2-.7c-.3.5-.7,1.2-.7,1.9h1.4ZM117.3,20.2l1.2.7c.3-.4.6-.9,1.1-1.5l-1.1-.9-1.1-.9c-.5.7-1,1.3-1.4,1.9l1.2.7ZM118.6,18.5l1.1.9c.5-.6,1-1.2,1.6-1.7l-1-1-1-1c-.7.6-1.3,1.3-1.8,2l1.1.9ZM120.3,16.7l1,1c.6-.6,1.2-1.1,1.8-1.6l-.9-1.1-.9-1.1c-.7.5-1.4,1.1-2,1.8l1,1ZM122.2,15l.9,1.1c.6-.5,1.2-.9,1.7-1.1l-.7-1.2-.7-1.2c-.7.4-1.4.8-2.1,1.4l.9,1.1ZM124.1,13.7l.7,1.2c.5-.3.8-.3.8-.3v-2.8c-.8,0-1.5.3-2.2.7l.7,1.2ZM125.6,13.2v1.4s0,0,0,0c0,0,0,0,0,0s0,0,0,0c0,0,0,0,0,0l1-1,1-1c-.6-.6-1.4-.9-2.1-.9v1.4ZM126.7,13.7l-1,1s0,0,0,0c0,0,0,0,0,.2h2.8c0-.8-.2-1.6-.9-2.2l-1,1ZM127.1,14.9h-1.4c0,.1,0,.3,0,.6l1.4.2,1.4.2c0-.3,0-.7,0-1h-1.4ZM127.1,15.6l-1.4-.2s0,0,0,0l1.1.9,1.1.9c.3-.4.5-.9.6-1.4l-1.4-.2ZM126.7,16.4l-1.1-.9s0,0,0,0c0,0,0,0-.1,0l.3,1.4.3,1.4c.5-.1,1.1-.4,1.6-.9l-1.1-.9ZM125.9,16.8l-.3-1.4c0,0-.4,0-.9,0l-.3,1.4-.3,1.4c.7.1,1.4.2,2.1,0l-.3-1.4ZM124.4,16.8l-.8-1.1c-.5.4-1.1.8-1.6,1.3l.9,1.1.9,1.1c.5-.4,1-.8,1.5-1.2l-.8-1.1ZM122.9,18l-.9-1.1c-.6.5-1.1.9-1.6,1.4l1,1,1,1c.4-.4.9-.8,1.4-1.2l-.9-1.1ZM121.4,19.3l-1-1c-.5.5-1,1-1.3,1.5l1.1.8,1.1.8c.2-.4.6-.7,1-1.1l-1-1ZM120.2,20.7l.4,1.3c.5-.1,1-.3,1.6-.4l-.2-1.4-.2-1.4c-.8.1-1.4.3-2.1.5l.4,1.3ZM122,20.3l.2,1.4c.6-.1,1.2-.2,1.9-.2v-2.8c-.8,0-1.6,0-2.3.2l.2,1.4ZM124.1,20.1v1.4c.7,0,1.1.1,1.4.3l.7-1.2.7-1.2c-.8-.5-1.8-.7-2.8-.7v1.4ZM126.2,20.5l-.7,1.2c.3.2.5.4.6.6l1.3-.6,1.3-.6c-.4-.8-1-1.4-1.8-1.8l-.7,1.2ZM127.4,21.7l-1.2.7c.2.3.2.6.2,1h2.8c0-.8-.2-1.6-.6-2.3l-1.2.7ZM127.8,23.4h-1.4c0,.4-.1.8-.4,1.3l1.2.8,1.2.8c.6-.9.9-1.8.9-2.8h-1.4ZM127.1,25.4l-1.2-.8c-.3.5-.8,1-1.4,1.5l.8,1.1.8,1.1c.8-.6,1.6-1.4,2.1-2.2l-1.2-.8ZM125.4,27.3l-.8-1.1c-.6.5-1.3.9-2.1,1.2l.5,1.3.5,1.3c1-.4,2-.9,2.8-1.5l-.8-1.1ZM122.9,28.6l-.5-1.3c-.7.3-1.5.4-2.2.4v2.8c1.1,0,2.2-.2,3.2-.6l-.5-1.3Z"/>
  </g>
</svg>