<svg width="130" height="36" viewBox="0 0 130 36" fill="none" xmlns="http://www.w3.org/2000/svg">
<path d="M8.64 28.3345C7.22787 28.3345 5.97368 28.0186 4.87742 27.3868C3.78116 26.7551 2.92645 25.8911 2.31329 24.7948C1.70013 23.6986 1.39355 22.4444 1.39355 21.0323C1.39355 19.583 1.70013 18.3102 2.31329 17.2139C2.92645 16.0991 3.78116 15.2258 4.87742 14.5941C5.97368 13.9437 7.22787 13.6186 8.64 13.6186C10.4423 13.6186 11.9566 14.0924 13.183 15.04C14.4093 15.9876 15.1897 17.2883 15.5241 18.9419H11.5386C11.3714 18.2916 11.0183 17.7806 10.4795 17.409C9.95923 17.0374 9.33677 16.8516 8.61213 16.8516C7.96181 16.8516 7.37652 17.0188 6.85626 17.3533C6.35458 17.6692 5.9551 18.143 5.65781 18.7747C5.3791 19.3879 5.23974 20.1218 5.23974 20.9765C5.23974 21.6268 5.32336 22.2121 5.49058 22.7324C5.65781 23.2341 5.89006 23.6707 6.18736 24.0423C6.48465 24.3954 6.83768 24.6648 7.24645 24.8506C7.67381 25.0364 8.12903 25.1293 8.61213 25.1293C9.09523 25.1293 9.53187 25.0457 9.92206 24.8785C10.3308 24.7112 10.6746 24.479 10.9533 24.1817C11.232 23.8658 11.4271 23.4849 11.5386 23.039H15.5241C15.1897 24.6555 14.4 25.9468 13.1551 26.913C11.9288 27.8606 10.4237 28.3345 8.64 28.3345ZM23.507 28.3345C22.3364 28.3345 21.3702 28.1486 20.6084 27.777C19.8466 27.3868 19.2799 26.8759 18.9083 26.2441C18.5552 25.5938 18.3787 24.8785 18.3787 24.0981C18.3787 23.2434 18.5924 22.4908 19.0198 21.8405C19.4657 21.1902 20.1253 20.6792 20.9986 20.3076C21.8905 19.936 23.0053 19.7502 24.3431 19.7502H27.827C27.827 19.0627 27.7341 18.496 27.5483 18.0501C27.3625 17.5855 27.0745 17.2418 26.6843 17.0188C26.2941 16.7959 25.7738 16.6844 25.1235 16.6844C24.4174 16.6844 23.8136 16.8423 23.3119 17.1582C22.8288 17.4555 22.5315 17.92 22.42 18.5517H18.7689C18.8618 17.5484 19.187 16.6844 19.7444 15.9597C20.3204 15.2165 21.0729 14.6405 22.002 14.2317C22.9496 13.823 23.9994 13.6186 25.1514 13.6186C26.4706 13.6186 27.6133 13.8415 28.5795 14.2875C29.5457 14.7334 30.2889 15.3745 30.8092 16.2106C31.3294 17.0467 31.5896 18.0779 31.5896 19.3043V28H28.4123L27.9942 25.8539C27.7898 26.2255 27.5483 26.56 27.2696 26.8573C26.9909 27.1546 26.6657 27.4147 26.2941 27.6377C25.9225 27.8606 25.5044 28.0279 25.0399 28.1394C24.5754 28.2694 24.0644 28.3345 23.507 28.3345ZM24.3989 25.4359C24.882 25.4359 25.3093 25.3523 25.6809 25.185C26.0711 24.9992 26.4056 24.7577 26.6843 24.4604C26.963 24.1445 27.1767 23.7915 27.3253 23.4013C27.4925 22.9925 27.604 22.5559 27.6598 22.0914V22.0635H24.789C24.213 22.0635 23.7392 22.1378 23.3676 22.2865C23.0146 22.4165 22.7545 22.6116 22.5872 22.8717C22.42 23.1319 22.3364 23.4292 22.3364 23.7636C22.3364 24.1352 22.42 24.4418 22.5872 24.6834C22.7545 24.9249 22.996 25.1107 23.3119 25.2408C23.6278 25.3708 23.9901 25.4359 24.3989 25.4359ZM35.0996 28V13.953H38.4441L38.8064 16.545C39.1409 15.9319 39.5589 15.4116 40.0606 14.9843C40.5809 14.5569 41.1661 14.2225 41.8165 13.9809C42.4854 13.7394 43.2193 13.6186 44.0183 13.6186V17.6041H42.7362C42.1788 17.6041 41.6585 17.6692 41.1754 17.7992C40.7109 17.9293 40.3021 18.143 39.9491 18.4403C39.5961 18.719 39.3267 19.1092 39.1409 19.6108C38.955 20.1125 38.8621 20.7443 38.8621 21.5061V28H35.0996ZM53.0308 28.3345C51.6187 28.3345 50.3645 28.0372 49.2682 27.4426C48.1906 26.8294 47.3452 25.984 46.732 24.9063C46.1374 23.8101 45.8401 22.5466 45.8401 21.1159C45.8401 19.648 46.1374 18.3566 46.732 17.2418C47.3266 16.1084 48.1627 15.2258 49.2404 14.5941C50.3366 13.9437 51.6001 13.6186 53.0308 13.6186C54.4244 13.6186 55.6414 13.9252 56.6819 14.5383C57.7224 15.1515 58.5307 15.9783 59.1067 17.0188C59.6827 18.0594 59.9707 19.2392 59.9707 20.5585C59.9707 20.7443 59.9707 20.9579 59.9707 21.1995C59.9707 21.4225 59.9521 21.6547 59.915 21.8963H48.5157V19.6108H56.1802C56.1245 18.7004 55.7993 17.985 55.2048 17.4648C54.6288 16.9445 53.9041 16.6844 53.0308 16.6844C52.3991 16.6844 51.8138 16.833 51.275 17.1303C50.7361 17.409 50.3088 17.8457 49.9929 18.4403C49.6956 19.0348 49.547 19.7874 49.547 20.6978V21.5061C49.547 22.2679 49.6863 22.9368 49.965 23.5128C50.2623 24.0702 50.6711 24.5068 51.1913 24.8227C51.7116 25.12 52.3155 25.2686 53.003 25.2686C53.6904 25.2686 54.2572 25.12 54.7031 24.8227C55.1676 24.5254 55.5113 24.1445 55.7343 23.68H59.5805C59.3204 24.5533 58.8837 25.343 58.2706 26.049C57.6574 26.7551 56.9049 27.3125 56.013 27.7213C55.1212 28.1301 54.1271 28.3345 53.0308 28.3345ZM72.0545 28V24.4604H62.4669V21.4782L71.5528 8.49032H75.8171V21.1995H78.3533V24.4604H75.8171V28H72.0545ZM66.4803 21.1995H72.3053V12.6431L66.4803 21.1995Z" fill="#141414"/>
<mask id="path-2-outside-1_909_255" maskUnits="userSpaceOnUse" x="74" y="6" width="56" height="26" fill="black">
<rect fill="white" x="74" y="6" width="56" height="26"/>
<path d="M87.9448 29.6107C86.9445 29.6107 86.0178 29.3974 85.1646 28.9708C84.3115 28.559 83.5319 28.0147 82.8258 27.3381C82.1197 26.6467 81.4872 25.8965 80.9283 25.0875C80.384 24.2637 79.9206 23.4547 79.5382 22.6604C79.3617 23.4694 79.1999 24.1608 79.0528 24.7345C78.9204 25.3081 78.8101 25.7862 78.7218 26.1686C78.6483 26.4628 78.5674 26.7497 78.4791 27.0292C78.4055 27.3086 78.2879 27.5366 78.1261 27.7132C77.9643 27.8897 77.7363 27.9779 77.4421 27.9779C76.8095 27.9779 76.405 27.7646 76.2285 27.3381C76.052 26.8968 75.9637 26.3378 75.9637 25.6612C75.9637 25.0581 76.0594 24.2637 76.2506 23.2782C76.4565 22.2926 76.7286 21.1894 77.067 19.9685C77.4053 18.7476 77.7951 17.4899 78.2364 16.1955C78.6924 14.8863 79.1778 13.6139 79.6926 12.3783C80.2075 11.128 80.7223 9.99535 81.2372 8.98039C81.5608 8.36258 81.8476 7.97277 82.0977 7.81097C82.3477 7.63445 82.6419 7.54619 82.9803 7.54619C83.3186 7.54619 83.576 7.63445 83.7525 7.81097C83.929 7.98748 84.0173 8.22284 84.0173 8.51703C84.0173 8.70826 83.9732 8.89948 83.8849 9.09071C83.7966 9.28193 83.701 9.51729 83.5981 9.79677C83.2597 10.547 82.9067 11.4222 82.539 12.4225C82.1712 13.408 81.8182 14.4303 81.4799 15.4894C81.1415 16.5338 80.84 17.5267 80.5752 18.4681C81.296 18.0415 82.0977 17.6297 82.9803 17.2325C83.8628 16.8206 84.7528 16.4529 85.6501 16.1293C86.5621 15.791 87.4152 15.5262 88.2095 15.335C89.0039 15.1437 89.6732 15.0481 90.2174 15.0481C90.644 15.0481 90.9676 15.1732 91.1883 15.4232C91.4089 15.6733 91.5192 15.9454 91.5192 16.2396C91.5192 16.4603 91.453 16.6809 91.3206 16.9015C91.1883 17.1222 90.9088 17.3134 90.4822 17.4752C89.0701 17.9459 87.6653 18.424 86.2679 18.9094C84.8852 19.3948 83.348 19.9685 81.6564 20.6305C82.0094 21.3218 82.4213 22.0352 82.892 22.7707C83.3627 23.4915 83.8702 24.1681 84.4145 24.8006C84.9587 25.4185 85.5177 25.9259 86.0914 26.3231C86.665 26.7055 87.2314 26.8968 87.7903 26.8968C88.6141 26.8968 89.4084 26.735 90.1733 26.4114C90.9382 26.073 91.6443 25.6685 92.2915 25.1978C92.9387 24.7124 93.505 24.2417 93.9905 23.7857C94.4906 23.3297 94.8804 22.9766 95.1599 22.7266C95.3217 22.5648 95.4761 22.4471 95.6232 22.3735C95.785 22.3 95.9836 22.2632 96.219 22.2632C96.4985 22.2632 96.7117 22.3515 96.8588 22.528C97.0206 22.6898 97.0942 22.9031 97.0795 23.1679C97.0648 23.4179 96.9397 23.668 96.7044 23.9181C96.5132 24.124 96.2116 24.455 95.7997 24.911C95.4026 25.3523 94.9172 25.845 94.3435 26.3893C93.7845 26.9188 93.1594 27.4337 92.468 27.9338C91.7914 28.4192 91.0706 28.8164 90.3057 29.1253C89.5408 29.4489 88.7538 29.6107 87.9448 29.6107ZM96.6216 28.331C96.2098 28.331 95.842 28.1912 95.5184 27.9117C95.2095 27.6323 95.0551 27.1763 95.0551 26.5437C95.0551 26.2054 95.0992 25.7274 95.1875 25.1095C95.2904 24.4917 95.4228 23.8225 95.5846 23.1017C95.7464 22.3662 95.9229 21.6381 96.1142 20.9173C96.3201 20.1965 96.5187 19.5566 96.7099 18.9977C96.9011 18.424 97.0703 17.9974 97.2174 17.7179C97.4086 17.3796 97.5851 17.1737 97.7469 17.1001C97.9235 17.0119 98.0926 16.9677 98.2544 16.9677C98.5486 16.9677 98.8207 17.056 99.0708 17.2325C99.3356 17.409 99.468 17.7988 99.468 18.4019C99.468 18.6373 99.4238 19.0197 99.3356 19.5493C99.2473 20.0641 99.137 20.6672 99.0046 21.3586C98.8722 22.0499 98.7251 22.7634 98.5633 23.4988C98.4162 24.2343 98.2691 24.933 98.122 25.595C97.9896 26.2422 97.8793 26.7865 97.7911 27.2277C97.7175 27.5955 97.5631 27.8676 97.3277 28.0441C97.1071 28.2354 96.8717 28.331 96.6216 28.331ZM99.1591 14.7834C98.6736 14.7834 98.225 14.6436 97.8131 14.3641C97.4013 14.0699 97.1953 13.6213 97.1953 13.0182C97.1953 12.5181 97.3204 12.1135 97.5704 11.8046C97.8205 11.4957 98.1147 11.2751 98.453 11.1427C98.806 10.9956 99.1149 10.9221 99.3797 10.9221C99.6445 10.9221 99.9387 10.9809 100.262 11.0986C100.586 11.2015 100.865 11.4001 101.101 11.6943C101.351 11.9738 101.476 12.3783 101.476 12.9079C101.476 13.2609 101.351 13.5845 101.101 13.8787C100.851 14.1582 100.542 14.3788 100.174 14.5406C99.821 14.7025 99.4827 14.7834 99.1591 14.7834ZM111.84 16.1955C112.649 14.2685 113.363 12.2827 113.981 10.2381C114.098 9.82619 114.267 9.50993 114.488 9.28929C114.723 9.06864 115.047 8.95832 115.459 8.95832C115.797 8.95832 116.055 9.06129 116.231 9.26723C116.408 9.45845 116.496 9.72323 116.496 10.0615C116.496 10.341 116.378 10.8412 116.143 11.5619C115.908 12.268 115.621 13.1653 115.282 14.2538C114.944 15.3423 114.606 16.6 114.267 18.0268C113.929 19.4537 113.642 21.0203 113.407 22.7266C113.172 24.4329 113.054 26.2569 113.054 28.1986C113.054 28.7281 112.951 29.1621 112.745 29.5004C112.554 29.8534 112.215 30.0299 111.73 30.0299C111.2 30.0299 110.811 29.8461 110.561 29.4783C110.325 29.1106 110.208 28.6399 110.208 28.0662C110.208 26.9335 110.244 25.9921 110.318 25.2419C110.406 24.477 110.494 23.8225 110.583 23.2782C109.862 24.5138 109.097 25.5803 108.288 26.4775C107.494 27.3601 106.729 28.0368 105.993 28.5075C105.258 28.9929 104.625 29.2356 104.096 29.2356C103.228 29.2356 102.522 28.9929 101.977 28.5075C101.433 28.0221 101.161 27.2866 101.161 26.301C101.161 25.5361 101.345 24.7492 101.713 23.9401C102.08 23.1164 102.566 22.3074 103.169 21.513C103.772 20.7187 104.434 19.9759 105.155 19.2845C105.89 18.5785 106.626 17.9606 107.361 17.4311C108.097 16.8868 108.781 16.4603 109.413 16.1514C110.046 15.8425 110.561 15.688 110.958 15.688C111.399 15.688 111.693 15.8572 111.84 16.1955ZM111.333 17.387C111.245 17.4458 111.149 17.5046 111.046 17.5635C110.958 17.6076 110.869 17.6591 110.781 17.7179C110.222 18.071 109.626 18.4975 108.994 18.9977C108.361 19.4831 107.736 20.0274 107.118 20.6305C106.501 21.2188 105.934 21.8366 105.42 22.4839C104.919 23.1164 104.515 23.7489 104.206 24.3814C103.912 24.9992 103.765 25.595 103.765 26.1686C103.765 26.2716 103.809 26.3452 103.897 26.3893C103.985 26.4334 104.066 26.4555 104.14 26.4555C104.655 26.4555 105.206 26.2275 105.795 25.7715C106.398 25.3155 107.008 24.683 107.626 23.8739C108.258 23.0502 108.884 22.0867 109.501 20.9835C110.134 19.8803 110.744 18.6814 111.333 17.387ZM120.212 29.1253C119.58 29.1253 119.131 29.037 118.866 28.8605C118.616 28.684 118.491 28.4266 118.491 28.0883C118.491 27.7941 118.594 27.544 118.8 27.3381C119.006 27.1174 119.462 26.8968 120.168 26.6761C120.992 26.4261 121.771 26.1392 122.507 25.8156C123.257 25.4773 123.868 25.1095 124.338 24.7124C124.824 24.3152 125.066 23.896 125.066 23.4547C125.066 23.1605 124.963 22.9472 124.758 22.8148C124.566 22.6825 124.338 22.6163 124.074 22.6163C123.853 22.6163 123.529 22.653 123.103 22.7266C122.691 22.7854 122.235 22.8663 121.735 22.9693C121.235 23.0575 120.749 23.1385 120.278 23.212C119.822 23.2708 119.433 23.3003 119.109 23.3003C118.344 23.3003 117.778 23.1311 117.41 22.7928C117.042 22.4397 116.858 21.9911 116.858 21.4468C116.858 21.1526 117.013 20.7481 117.322 20.2333C117.631 19.7185 118.043 19.1521 118.557 18.5343C119.072 17.9165 119.646 17.2987 120.278 16.6809C120.911 16.0631 121.551 15.4968 122.198 14.9819C122.86 14.4524 123.485 14.0332 124.074 13.7243C124.662 13.4006 125.162 13.2388 125.574 13.2388C126.045 13.2388 126.42 13.3859 126.699 13.6801C126.993 13.9743 127.14 14.3715 127.14 14.8716C127.14 15.107 127.118 15.3644 127.074 15.6439C127.03 15.9086 126.92 16.1514 126.743 16.372C126.567 16.5779 126.295 16.725 125.927 16.8133C125.559 16.9015 125.059 16.8868 124.427 16.7692C123.926 17.1369 123.404 17.5414 122.86 17.9827C122.33 18.4093 121.83 18.8579 121.36 19.3286C120.889 19.7846 120.499 20.2333 120.19 20.6746C120.734 20.4981 121.352 20.3583 122.044 20.2554C122.735 20.1377 123.434 20.0788 124.14 20.0788C124.993 20.0788 125.684 20.2333 126.214 20.5422C126.758 20.8364 127.155 21.2335 127.405 21.7337C127.67 22.2338 127.802 22.7854 127.802 23.3885C127.802 24.0652 127.582 24.7418 127.14 25.4185C126.699 26.0951 126.111 26.7129 125.375 27.2719C124.64 27.8308 123.823 28.2795 122.926 28.6178C122.029 28.9561 121.124 29.1253 120.212 29.1253Z"/>
</mask>
<path d="M87.9448 29.6107C86.9445 29.6107 86.0178 29.3974 85.1646 28.9708C84.3115 28.559 83.5319 28.0147 82.8258 27.3381C82.1197 26.6467 81.4872 25.8965 80.9283 25.0875C80.384 24.2637 79.9206 23.4547 79.5382 22.6604C79.3617 23.4694 79.1999 24.1608 79.0528 24.7345C78.9204 25.3081 78.8101 25.7862 78.7218 26.1686C78.6483 26.4628 78.5674 26.7497 78.4791 27.0292C78.4055 27.3086 78.2879 27.5366 78.1261 27.7132C77.9643 27.8897 77.7363 27.9779 77.4421 27.9779C76.8095 27.9779 76.405 27.7646 76.2285 27.3381C76.052 26.8968 75.9637 26.3378 75.9637 25.6612C75.9637 25.0581 76.0594 24.2637 76.2506 23.2782C76.4565 22.2926 76.7286 21.1894 77.067 19.9685C77.4053 18.7476 77.7951 17.4899 78.2364 16.1955C78.6924 14.8863 79.1778 13.6139 79.6926 12.3783C80.2075 11.128 80.7223 9.99535 81.2372 8.98039C81.5608 8.36258 81.8476 7.97277 82.0977 7.81097C82.3477 7.63445 82.6419 7.54619 82.9803 7.54619C83.3186 7.54619 83.576 7.63445 83.7525 7.81097C83.929 7.98748 84.0173 8.22284 84.0173 8.51703C84.0173 8.70826 83.9732 8.89948 83.8849 9.09071C83.7966 9.28193 83.701 9.51729 83.5981 9.79677C83.2597 10.547 82.9067 11.4222 82.539 12.4225C82.1712 13.408 81.8182 14.4303 81.4799 15.4894C81.1415 16.5338 80.84 17.5267 80.5752 18.4681C81.296 18.0415 82.0977 17.6297 82.9803 17.2325C83.8628 16.8206 84.7528 16.4529 85.6501 16.1293C86.5621 15.791 87.4152 15.5262 88.2095 15.335C89.0039 15.1437 89.6732 15.0481 90.2174 15.0481C90.644 15.0481 90.9676 15.1732 91.1883 15.4232C91.4089 15.6733 91.5192 15.9454 91.5192 16.2396C91.5192 16.4603 91.453 16.6809 91.3206 16.9015C91.1883 17.1222 90.9088 17.3134 90.4822 17.4752C89.0701 17.9459 87.6653 18.424 86.2679 18.9094C84.8852 19.3948 83.348 19.9685 81.6564 20.6305C82.0094 21.3218 82.4213 22.0352 82.892 22.7707C83.3627 23.4915 83.8702 24.1681 84.4145 24.8006C84.9587 25.4185 85.5177 25.9259 86.0914 26.3231C86.665 26.7055 87.2314 26.8968 87.7903 26.8968C88.6141 26.8968 89.4084 26.735 90.1733 26.4114C90.9382 26.073 91.6443 25.6685 92.2915 25.1978C92.9387 24.7124 93.505 24.2417 93.9905 23.7857C94.4906 23.3297 94.8804 22.9766 95.1599 22.7266C95.3217 22.5648 95.4761 22.4471 95.6232 22.3735C95.785 22.3 95.9836 22.2632 96.219 22.2632C96.4985 22.2632 96.7117 22.3515 96.8588 22.528C97.0206 22.6898 97.0942 22.9031 97.0795 23.1679C97.0648 23.4179 96.9397 23.668 96.7044 23.9181C96.5132 24.124 96.2116 24.455 95.7997 24.911C95.4026 25.3523 94.9172 25.845 94.3435 26.3893C93.7845 26.9188 93.1594 27.4337 92.468 27.9338C91.7914 28.4192 91.0706 28.8164 90.3057 29.1253C89.5408 29.4489 88.7538 29.6107 87.9448 29.6107ZM96.6216 28.331C96.2098 28.331 95.842 28.1912 95.5184 27.9117C95.2095 27.6323 95.0551 27.1763 95.0551 26.5437C95.0551 26.2054 95.0992 25.7274 95.1875 25.1095C95.2904 24.4917 95.4228 23.8225 95.5846 23.1017C95.7464 22.3662 95.9229 21.6381 96.1142 20.9173C96.3201 20.1965 96.5187 19.5566 96.7099 18.9977C96.9011 18.424 97.0703 17.9974 97.2174 17.7179C97.4086 17.3796 97.5851 17.1737 97.7469 17.1001C97.9235 17.0119 98.0926 16.9677 98.2544 16.9677C98.5486 16.9677 98.8207 17.056 99.0708 17.2325C99.3356 17.409 99.468 17.7988 99.468 18.4019C99.468 18.6373 99.4238 19.0197 99.3356 19.5493C99.2473 20.0641 99.137 20.6672 99.0046 21.3586C98.8722 22.0499 98.7251 22.7634 98.5633 23.4988C98.4162 24.2343 98.2691 24.933 98.122 25.595C97.9896 26.2422 97.8793 26.7865 97.7911 27.2277C97.7175 27.5955 97.5631 27.8676 97.3277 28.0441C97.1071 28.2354 96.8717 28.331 96.6216 28.331ZM99.1591 14.7834C98.6736 14.7834 98.225 14.6436 97.8131 14.3641C97.4013 14.0699 97.1953 13.6213 97.1953 13.0182C97.1953 12.5181 97.3204 12.1135 97.5704 11.8046C97.8205 11.4957 98.1147 11.2751 98.453 11.1427C98.806 10.9956 99.1149 10.9221 99.3797 10.9221C99.6445 10.9221 99.9387 10.9809 100.262 11.0986C100.586 11.2015 100.865 11.4001 101.101 11.6943C101.351 11.9738 101.476 12.3783 101.476 12.9079C101.476 13.2609 101.351 13.5845 101.101 13.8787C100.851 14.1582 100.542 14.3788 100.174 14.5406C99.821 14.7025 99.4827 14.7834 99.1591 14.7834ZM111.84 16.1955C112.649 14.2685 113.363 12.2827 113.981 10.2381C114.098 9.82619 114.267 9.50993 114.488 9.28929C114.723 9.06864 115.047 8.95832 115.459 8.95832C115.797 8.95832 116.055 9.06129 116.231 9.26723C116.408 9.45845 116.496 9.72323 116.496 10.0615C116.496 10.341 116.378 10.8412 116.143 11.5619C115.908 12.268 115.621 13.1653 115.282 14.2538C114.944 15.3423 114.606 16.6 114.267 18.0268C113.929 19.4537 113.642 21.0203 113.407 22.7266C113.172 24.4329 113.054 26.2569 113.054 28.1986C113.054 28.7281 112.951 29.1621 112.745 29.5004C112.554 29.8534 112.215 30.0299 111.73 30.0299C111.2 30.0299 110.811 29.8461 110.561 29.4783C110.325 29.1106 110.208 28.6399 110.208 28.0662C110.208 26.9335 110.244 25.9921 110.318 25.2419C110.406 24.477 110.494 23.8225 110.583 23.2782C109.862 24.5138 109.097 25.5803 108.288 26.4775C107.494 27.3601 106.729 28.0368 105.993 28.5075C105.258 28.9929 104.625 29.2356 104.096 29.2356C103.228 29.2356 102.522 28.9929 101.977 28.5075C101.433 28.0221 101.161 27.2866 101.161 26.301C101.161 25.5361 101.345 24.7492 101.713 23.9401C102.08 23.1164 102.566 22.3074 103.169 21.513C103.772 20.7187 104.434 19.9759 105.155 19.2845C105.89 18.5785 106.626 17.9606 107.361 17.4311C108.097 16.8868 108.781 16.4603 109.413 16.1514C110.046 15.8425 110.561 15.688 110.958 15.688C111.399 15.688 111.693 15.8572 111.84 16.1955ZM111.333 17.387C111.245 17.4458 111.149 17.5046 111.046 17.5635C110.958 17.6076 110.869 17.6591 110.781 17.7179C110.222 18.071 109.626 18.4975 108.994 18.9977C108.361 19.4831 107.736 20.0274 107.118 20.6305C106.501 21.2188 105.934 21.8366 105.42 22.4839C104.919 23.1164 104.515 23.7489 104.206 24.3814C103.912 24.9992 103.765 25.595 103.765 26.1686C103.765 26.2716 103.809 26.3452 103.897 26.3893C103.985 26.4334 104.066 26.4555 104.14 26.4555C104.655 26.4555 105.206 26.2275 105.795 25.7715C106.398 25.3155 107.008 24.683 107.626 23.8739C108.258 23.0502 108.884 22.0867 109.501 20.9835C110.134 19.8803 110.744 18.6814 111.333 17.387ZM120.212 29.1253C119.58 29.1253 119.131 29.037 118.866 28.8605C118.616 28.684 118.491 28.4266 118.491 28.0883C118.491 27.7941 118.594 27.544 118.8 27.3381C119.006 27.1174 119.462 26.8968 120.168 26.6761C120.992 26.4261 121.771 26.1392 122.507 25.8156C123.257 25.4773 123.868 25.1095 124.338 24.7124C124.824 24.3152 125.066 23.896 125.066 23.4547C125.066 23.1605 124.963 22.9472 124.758 22.8148C124.566 22.6825 124.338 22.6163 124.074 22.6163C123.853 22.6163 123.529 22.653 123.103 22.7266C122.691 22.7854 122.235 22.8663 121.735 22.9693C121.235 23.0575 120.749 23.1385 120.278 23.212C119.822 23.2708 119.433 23.3003 119.109 23.3003C118.344 23.3003 117.778 23.1311 117.41 22.7928C117.042 22.4397 116.858 21.9911 116.858 21.4468C116.858 21.1526 117.013 20.7481 117.322 20.2333C117.631 19.7185 118.043 19.1521 118.557 18.5343C119.072 17.9165 119.646 17.2987 120.278 16.6809C120.911 16.0631 121.551 15.4968 122.198 14.9819C122.86 14.4524 123.485 14.0332 124.074 13.7243C124.662 13.4006 125.162 13.2388 125.574 13.2388C126.045 13.2388 126.42 13.3859 126.699 13.6801C126.993 13.9743 127.14 14.3715 127.14 14.8716C127.14 15.107 127.118 15.3644 127.074 15.6439C127.03 15.9086 126.92 16.1514 126.743 16.372C126.567 16.5779 126.295 16.725 125.927 16.8133C125.559 16.9015 125.059 16.8868 124.427 16.7692C123.926 17.1369 123.404 17.5414 122.86 17.9827C122.33 18.4093 121.83 18.8579 121.36 19.3286C120.889 19.7846 120.499 20.2333 120.19 20.6746C120.734 20.4981 121.352 20.3583 122.044 20.2554C122.735 20.1377 123.434 20.0788 124.14 20.0788C124.993 20.0788 125.684 20.2333 126.214 20.5422C126.758 20.8364 127.155 21.2335 127.405 21.7337C127.67 22.2338 127.802 22.7854 127.802 23.3885C127.802 24.0652 127.582 24.7418 127.14 25.4185C126.699 26.0951 126.111 26.7129 125.375 27.2719C124.64 27.8308 123.823 28.2795 122.926 28.6178C122.029 28.9561 121.124 29.1253 120.212 29.1253Z" fill="url(#paint0_linear_909_255)"/>
<path d="M85.1646 28.9708L85.7907 27.7186L85.7821 27.7143L85.7733 27.7101L85.1646 28.9708ZM82.8258 27.3381L81.8463 28.3384L81.8517 28.3436L81.8571 28.3488L82.8258 27.3381ZM80.9283 25.0875L79.7602 25.8592L79.7682 25.8714L79.7764 25.8833L80.9283 25.0875ZM79.5382 22.6604L80.7996 22.053L79.0366 18.3915L78.1704 22.362L79.5382 22.6604ZM79.0528 24.7345L77.6966 24.3867L77.6924 24.4031L77.6886 24.4196L79.0528 24.7345ZM78.7218 26.1686L80.08 26.5082L80.0831 26.4958L80.086 26.4834L78.7218 26.1686ZM78.4791 27.0292L77.1441 26.6076L77.1338 26.64L77.1252 26.6729L78.4791 27.0292ZM78.1261 27.7132L77.094 26.7671H77.094L78.1261 27.7132ZM76.2285 27.3381L74.9286 27.858L74.9317 27.8657L74.9349 27.8734L76.2285 27.3381ZM76.2506 23.2782L74.8802 22.9918L74.8781 23.0017L74.8762 23.0115L76.2506 23.2782ZM77.067 19.9685L78.4161 20.3424L77.067 19.9685ZM78.2364 16.1955L76.9143 15.735L76.9113 15.7437L78.2364 16.1955ZM79.6926 12.3783L80.985 12.9168L80.9872 12.9114L79.6926 12.3783ZM81.2372 8.98039L79.997 8.33078L79.9927 8.33889L79.9886 8.34706L81.2372 8.98039ZM82.0977 7.81097L82.8582 8.98637L82.882 8.97102L82.905 8.95472L82.0977 7.81097ZM83.7525 7.81097L82.7626 8.80092L82.7626 8.80092L83.7525 7.81097ZM83.8849 9.09071L82.6138 8.50403L82.6138 8.50403L83.8849 9.09071ZM83.5981 9.79677L84.8743 10.3723L84.8946 10.3272L84.9117 10.2808L83.5981 9.79677ZM82.539 12.4225L83.8506 12.9119L83.853 12.9055L82.539 12.4225ZM81.4799 15.4894L82.8117 15.9209L82.8135 15.9154L81.4799 15.4894ZM80.5752 18.4681L79.2275 18.0891L78.2816 21.4524L81.2883 19.6729L80.5752 18.4681ZM82.9803 17.2325L83.5548 18.5092L83.5636 18.5052L83.5723 18.5012L82.9803 17.2325ZM85.6501 16.1293L86.1251 17.4463L86.137 17.4419L85.6501 16.1293ZM88.2095 15.335L88.5372 16.6961H88.5372L88.2095 15.335ZM91.1883 15.4232L92.238 14.497L92.238 14.497L91.1883 15.4232ZM90.4822 17.4752L90.9249 18.8034L90.952 18.7944L90.9787 18.7842L90.4822 17.4752ZM86.2679 18.9094L85.8085 17.5869L85.8041 17.5885L86.2679 18.9094ZM81.6564 20.6305L81.1462 19.3267L79.7064 19.8901L80.4095 21.2671L81.6564 20.6305ZM82.892 22.7707L81.7128 23.5254L81.7198 23.5362L82.892 22.7707ZM84.4145 24.8006L83.3532 25.7138L83.3586 25.72L83.3639 25.7261L84.4145 24.8006ZM86.0914 26.3231L85.2945 27.4742L85.3046 27.4812L85.3148 27.488L86.0914 26.3231ZM90.1733 26.4114L90.7188 27.7007L90.7292 27.6963L90.7396 27.6917L90.1733 26.4114ZM92.2915 25.1978L93.1149 26.33L93.1233 26.324L93.1315 26.3178L92.2915 25.1978ZM93.9905 23.7857L93.0472 22.7511L93.0395 22.7582L93.0319 22.7653L93.9905 23.7857ZM95.1599 22.7266L96.0934 23.7699L96.1223 23.744L96.1498 23.7165L95.1599 22.7266ZM95.6232 22.3735L95.0439 21.099L95.0203 21.1098L94.9971 21.1214L95.6232 22.3735ZM96.8588 22.528L95.7833 23.4243L95.824 23.473L95.8689 23.518L96.8588 22.528ZM97.0795 23.1679L98.4771 23.2501L98.4773 23.2455L97.0795 23.1679ZM96.7044 23.9181L95.6849 22.9585L95.6785 22.9654L96.7044 23.9181ZM95.7997 24.911L94.7608 23.9726L94.7591 23.9744L95.7997 24.911ZM94.3435 26.3893L95.3063 27.4056L95.3071 27.4049L94.3435 26.3893ZM92.468 27.9338L93.2841 29.0714L93.2886 29.0681L92.468 27.9338ZM90.3057 29.1253L89.7814 27.8272L89.7708 27.8315L89.7602 27.8359L90.3057 29.1253ZM87.9448 29.6107V28.2107C87.151 28.2107 86.44 28.0433 85.7907 27.7186L85.1646 28.9708L84.5385 30.223C85.5956 30.7516 86.7381 31.0107 87.9448 31.0107V29.6107ZM85.1646 28.9708L85.7733 27.7101C85.0568 27.3642 84.3979 26.9055 83.7945 26.3273L82.8258 27.3381L81.8571 28.3488C82.6659 29.1239 83.5662 29.7538 84.556 30.2316L85.1646 28.9708ZM82.8258 27.3381L83.8053 26.3377C83.1627 25.7086 82.588 25.0268 82.0801 24.2917L80.9283 25.0875L79.7764 25.8833C80.3864 26.7662 81.0767 27.5848 81.8463 28.3384L82.8258 27.3381ZM80.9283 25.0875L82.0963 24.3157C81.5828 23.5385 81.1517 22.7843 80.7996 22.053L79.5382 22.6604L78.2768 23.2677C78.6896 24.1252 79.1852 24.989 79.7602 25.8592L80.9283 25.0875ZM79.5382 22.6604L78.1704 22.362C77.9962 23.1604 77.8383 23.8344 77.6966 24.3867L79.0528 24.7345L80.4089 25.0822C80.5615 24.4872 80.7272 23.7784 80.906 22.9588L79.5382 22.6604ZM79.0528 24.7345L77.6886 24.4196C77.5562 24.9933 77.4459 25.4714 77.3577 25.8538L78.7218 26.1686L80.086 26.4834C80.1742 26.101 80.2845 25.6229 80.4169 25.0493L79.0528 24.7345ZM78.7218 26.1686L77.3636 25.8291C77.2967 26.0967 77.2235 26.3561 77.1441 26.6076L78.4791 27.0292L79.8141 27.4507C79.9112 27.1432 79.9998 26.829 80.08 26.5082L78.7218 26.1686ZM78.4791 27.0292L77.1252 26.6729C77.1113 26.7258 77.098 26.7552 77.0916 26.7677C77.0856 26.7793 77.0853 26.7766 77.094 26.7671L78.1261 27.7132L79.1581 28.6592C79.5021 28.2838 79.7135 27.8396 79.833 27.3855L78.4791 27.0292ZM78.1261 27.7132L77.094 26.7671C77.1618 26.6932 77.2458 26.6381 77.3283 26.6061C77.4046 26.5766 77.4506 26.5779 77.4421 26.5779V27.9779V29.3779C78.0321 29.3779 78.6722 29.1893 79.1581 28.6592L78.1261 27.7132ZM77.4421 27.9779V26.5779C77.2708 26.5779 77.256 26.5473 77.3173 26.5796C77.3518 26.5978 77.3969 26.6293 77.4401 26.6769C77.4832 26.7243 77.5088 26.7706 77.5221 26.8028L76.2285 27.3381L74.9349 27.8734C75.1468 28.3855 75.517 28.7957 76.0113 29.0564C76.4771 29.3019 76.9808 29.3779 77.4421 29.3779V27.9779ZM76.2285 27.3381L77.5284 26.8181C77.4397 26.5964 77.3637 26.2292 77.3637 25.6612H75.9637H74.5637C74.5637 26.4464 74.6643 27.1972 74.9286 27.858L76.2285 27.3381ZM75.9637 25.6612H77.3637C77.3637 25.1869 77.4411 24.4922 77.6249 23.5449L76.2506 23.2782L74.8762 23.0115C74.6776 24.0353 74.5637 24.9292 74.5637 25.6612H75.9637ZM76.2506 23.2782L77.621 23.5645C77.8195 22.6147 78.0839 21.5414 78.4161 20.3424L77.067 19.9685L75.7178 19.5947C75.3734 20.8375 75.0936 21.9706 74.8802 22.9918L76.2506 23.2782ZM77.067 19.9685L78.4161 20.3424C78.7466 19.1496 79.1283 17.918 79.5615 16.6472L78.2364 16.1955L76.9113 15.7437C76.4619 17.0619 76.0639 18.3456 75.7178 19.5947L77.067 19.9685ZM78.2364 16.1955L79.5585 16.656C80.0057 15.3722 80.4812 14.1258 80.985 12.9168L79.6926 12.3783L78.4003 11.8399C77.8744 13.102 77.3791 14.4005 76.9143 15.735L78.2364 16.1955ZM79.6926 12.3783L80.9872 12.9114C81.4905 11.689 81.9903 10.5905 82.4857 9.61371L81.2372 8.98039L79.9886 8.34706C79.4544 9.40024 78.9244 10.567 78.3981 11.8453L79.6926 12.3783ZM81.2372 8.98039L82.4773 9.63C82.6192 9.35905 82.7351 9.17337 82.8226 9.05443C82.9204 8.92154 82.9366 8.93567 82.8582 8.98637L82.0977 7.81097L81.3371 6.63557C81.0087 6.84807 80.7564 7.13801 80.5674 7.39492C80.3681 7.66579 80.1787 7.98392 79.997 8.33078L81.2372 8.98039ZM82.0977 7.81097L82.905 8.95472C82.9061 8.95394 82.9053 8.95419 82.9082 8.95334C82.9122 8.95212 82.9337 8.94619 82.9803 8.94619V7.54619V6.14619C82.3847 6.14619 81.8014 6.30648 81.2903 6.66721L82.0977 7.81097ZM82.9803 7.54619V8.94619C83.031 8.94619 83.021 8.95318 82.973 8.93671C82.9184 8.918 82.8384 8.87672 82.7626 8.80092L83.7525 7.81097L84.7425 6.82102C84.221 6.29957 83.5544 6.14619 82.9803 6.14619V7.54619ZM83.7525 7.81097L82.7626 8.80092C82.7085 8.74685 82.6658 8.67955 82.6402 8.61144C82.6163 8.54764 82.6173 8.50974 82.6173 8.51703H84.0173H85.4173C85.4173 7.92288 85.228 7.30656 84.7425 6.82102L83.7525 7.81097ZM84.0173 8.51703H82.6173C82.6173 8.51086 82.6177 8.50509 82.6182 8.49998C82.6188 8.49488 82.6196 8.49117 82.62 8.48907C82.6211 8.48456 82.6206 8.4893 82.6138 8.50403L83.8849 9.09071L85.156 9.67739C85.3205 9.32106 85.4173 8.9306 85.4173 8.51703H84.0173ZM83.8849 9.09071L82.6138 8.50403C82.5051 8.73948 82.3954 9.0115 82.2844 9.31279L83.5981 9.79677L84.9117 10.2808C85.0067 10.0231 85.0882 9.82439 85.156 9.67739L83.8849 9.09071ZM83.5981 9.79677L82.3218 9.22122C81.9665 10.0091 81.601 10.9164 81.225 11.9394L82.539 12.4225L83.853 12.9055C84.2124 11.928 84.553 11.0848 84.8743 10.3723L83.5981 9.79677ZM82.539 12.4225L81.2273 11.933C80.8513 12.9407 80.491 13.9842 80.1463 15.0634L81.4799 15.4894L82.8135 15.9154C83.1454 14.8764 83.4911 13.8753 83.8506 12.9119L82.539 12.4225ZM81.4799 15.4894L80.148 15.058C79.8047 16.1177 79.4978 17.1281 79.2275 18.0891L80.5752 18.4681L81.9229 18.8472C82.1822 17.9253 82.4784 16.95 82.8117 15.9209L81.4799 15.4894ZM80.5752 18.4681L81.2883 19.6729C81.958 19.2766 82.7126 18.8882 83.5548 18.5092L82.9803 17.2325L82.4057 15.9558C81.4828 16.3712 80.634 16.8065 79.8622 17.2633L80.5752 18.4681ZM82.9803 17.2325L83.5723 18.5012C84.4174 18.1068 85.2683 17.7552 86.125 17.4463L85.6501 16.1293L85.1751 14.8123C84.2372 15.1506 83.3083 15.5345 82.3882 15.9639L82.9803 17.2325ZM85.6501 16.1293L86.137 17.4419C87.0064 17.1194 87.8059 16.8721 88.5372 16.6961L88.2095 15.335L87.8819 13.9739C87.0245 14.1802 86.1177 14.4626 85.1631 14.8167L85.6501 16.1293ZM88.2095 15.335L88.5372 16.6961C89.272 16.5192 89.8237 16.4481 90.2174 16.4481V15.0481V13.6481C89.5226 13.6481 88.7357 13.7683 87.8819 13.9739L88.2095 15.335ZM90.2174 15.0481V16.4481C90.2965 16.4481 90.3069 16.46 90.2755 16.4478C90.2592 16.4415 90.2356 16.4302 90.209 16.4119C90.1822 16.3934 90.1582 16.3718 90.1385 16.3495L91.1883 15.4232L92.238 14.497C91.6814 13.8661 90.9258 13.6481 90.2174 13.6481V15.0481ZM91.1883 15.4232L90.1385 16.3495C90.1583 16.3719 90.1507 16.3697 90.139 16.3409C90.1334 16.327 90.1281 16.3099 90.1244 16.2908C90.1206 16.2717 90.1192 16.2541 90.1192 16.2396H91.5192H92.9192C92.9192 15.5586 92.6521 14.9663 92.238 14.497L91.1883 15.4232ZM91.5192 16.2396H90.1192C90.1192 16.2078 90.1243 16.1827 90.1286 16.1683C90.1326 16.1551 90.1334 16.1592 90.1202 16.1813L91.3206 16.9015L92.5211 17.6218C92.7621 17.2203 92.9192 16.7536 92.9192 16.2396H91.5192ZM91.3206 16.9015L90.1202 16.1813C90.185 16.0732 90.2448 16.0389 90.2212 16.055C90.2116 16.0616 90.1888 16.076 90.1484 16.0962C90.1083 16.1162 90.0548 16.14 89.9857 16.1662L90.4822 17.4752L90.9787 18.7842C91.4969 18.5877 92.1427 18.2526 92.5211 17.6218L91.3206 16.9015ZM90.4822 17.4752L90.0395 16.1471C88.6218 16.6196 87.2115 17.0996 85.8085 17.5869L86.2679 18.9094L86.7273 20.2319C88.1191 19.7484 89.5183 19.2722 90.9249 18.8034L90.4822 17.4752ZM86.2679 18.9094L85.8041 17.5885C84.4027 18.0805 82.8497 18.6601 81.1462 19.3267L81.6564 20.6305L82.1665 21.9342C83.8463 21.2769 85.3676 20.7092 86.7316 20.2304L86.2679 18.9094ZM81.6564 20.6305L80.4095 21.2671C80.7856 22.0035 81.2206 22.7563 81.7128 23.5254L82.892 22.7707L84.0712 22.016C83.622 21.3141 83.2333 20.6401 82.9032 19.9938L81.6564 20.6305ZM82.892 22.7707L81.7198 23.5362C82.2232 24.307 82.7675 25.0331 83.3532 25.7138L84.4145 24.8006L85.4757 23.8875C84.9729 23.3032 84.5023 22.676 84.0642 22.0052L82.892 22.7707ZM84.4145 24.8006L83.3639 25.7261C83.9702 26.4143 84.6125 27.002 85.2945 27.4742L86.0914 26.3231L86.8882 25.172C86.4229 24.8499 85.9472 24.4226 85.465 23.8752L84.4145 24.8006ZM86.0914 26.3231L85.3148 27.488C86.0644 27.9877 86.8965 28.2968 87.7903 28.2968V26.8968V25.4968C87.5662 25.4968 87.2657 25.4234 86.8679 25.1582L86.0914 26.3231ZM87.7903 26.8968V28.2968C88.8031 28.2968 89.7828 28.0967 90.7188 27.7007L90.1733 26.4114L89.6278 25.122C89.034 25.3732 88.4251 25.4968 87.7903 25.4968V26.8968ZM90.1733 26.4114L90.7396 27.6917C91.5911 27.3151 92.3839 26.8617 93.1149 26.33L92.2915 25.1978L91.468 24.0656C90.9046 24.4754 90.2852 24.831 89.607 25.131L90.1733 26.4114ZM92.2915 25.1978L93.1315 26.3178C93.8116 25.8077 94.419 25.304 94.949 24.8061L93.9905 23.7857L93.0319 22.7653C92.5911 23.1794 92.0658 23.6171 91.4515 24.0778L92.2915 25.1978ZM93.9905 23.7857L94.9337 24.8202C95.4327 24.3652 95.8188 24.0156 96.0934 23.7699L95.1599 22.7266L94.2264 21.6832C93.942 21.9377 93.5484 22.2941 93.0472 22.7511L93.9905 23.7857ZM95.1599 22.7266L96.1498 23.7165C96.194 23.6724 96.226 23.6454 96.2455 23.6306C96.2652 23.6156 96.2666 23.6171 96.2493 23.6257L95.6232 22.3735L94.9971 21.1214C94.6742 21.2828 94.3997 21.5068 94.1699 21.7366L95.1599 22.7266ZM95.6232 22.3735L96.2025 23.6481C96.1669 23.6643 96.1461 23.6678 96.1484 23.6674C96.1495 23.6672 96.1556 23.6661 96.1676 23.6651C96.1795 23.6641 96.1965 23.6632 96.219 23.6632V22.2632V20.8632C95.8455 20.8632 95.4365 20.9206 95.0439 21.099L95.6232 22.3735ZM96.219 22.2632V23.6632C96.2128 23.6632 96.1481 23.6623 96.0533 23.623C95.9513 23.5809 95.8557 23.5111 95.7833 23.4243L96.8588 22.528L97.9343 21.6317C97.4639 21.0672 96.8152 20.8632 96.219 20.8632V22.2632ZM96.8588 22.528L95.8689 23.518C95.8018 23.4508 95.7453 23.3629 95.7118 23.2657C95.68 23.1735 95.6807 23.1077 95.6816 23.0902L97.0795 23.1679L98.4773 23.2455C98.5103 22.6527 98.338 22.0273 97.8488 21.538L96.8588 22.528ZM97.0795 23.1679L95.6819 23.0857C95.6869 23.0006 95.7101 22.9417 95.7225 22.9169C95.7329 22.896 95.7296 22.911 95.6849 22.9586L96.7044 23.9181L97.7239 24.8776C98.101 24.4768 98.437 23.9315 98.4771 23.2501L97.0795 23.1679ZM96.7044 23.9181L95.6785 22.9654C95.4802 23.1789 95.1732 23.516 94.7608 23.9726L95.7997 24.911L96.8387 25.8494C97.2501 25.3939 97.5461 25.0691 97.7303 24.8707L96.7044 23.9181ZM95.7997 24.911L94.7591 23.9744C94.3931 24.3811 93.935 24.847 93.3799 25.3736L94.3435 26.3893L95.3071 27.4049C95.8993 26.8431 96.412 26.3234 96.8404 25.8475L95.7997 24.911ZM94.3435 26.3893L93.3806 25.373C92.8709 25.8558 92.2941 26.3317 91.6474 26.7995L92.468 27.9338L93.2886 29.0681C94.0246 28.5357 94.6981 27.9818 95.3063 27.4056L94.3435 26.3893ZM92.468 27.9338L91.6519 26.7963C91.065 27.2173 90.442 27.5604 89.7814 27.8272L90.3057 29.1253L90.8299 30.4234C91.6991 30.0724 92.5178 29.6211 93.2841 29.0714L92.468 27.9338ZM90.3057 29.1253L89.7602 27.8359C89.1632 28.0885 88.5614 28.2107 87.9448 28.2107V29.6107V31.0107C88.9462 31.0107 89.9184 30.8093 90.8512 30.4146L90.3057 29.1253ZM95.5184 27.9117L94.5791 28.9499L94.5911 28.9607L94.6034 28.9713L95.5184 27.9117ZM95.1875 25.1095L93.8065 24.8794L93.8038 24.8954L93.8015 24.9116L95.1875 25.1095ZM95.5846 23.1017L96.9506 23.4083L96.9519 23.4025L95.5846 23.1017ZM96.1142 20.9173L94.768 20.5327L94.7644 20.5454L94.761 20.5583L96.1142 20.9173ZM96.7099 18.9977L98.0346 19.4509L98.0381 19.4404L96.7099 18.9977ZM97.2174 17.7179L95.9986 17.0291L95.9883 17.0473L95.9785 17.0659L97.2174 17.7179ZM97.7469 17.1001L98.3263 18.3746L98.3499 18.3639L98.373 18.3523L97.7469 17.1001ZM99.0708 17.2325L98.2635 18.3763L98.2787 18.387L98.2942 18.3974L99.0708 17.2325ZM99.3356 19.5493L100.715 19.7858L100.717 19.7794L99.3356 19.5493ZM99.0046 21.3586L97.6296 21.0953V21.0953L99.0046 21.3586ZM98.5633 23.4988L97.196 23.198L97.1931 23.2111L97.1905 23.2243L98.5633 23.4988ZM98.122 25.595L96.7554 25.2913L96.7528 25.3028L96.7504 25.3144L98.122 25.595ZM97.7911 27.2277L96.4183 26.9532L97.7911 27.2277ZM97.3277 28.0441L96.4877 26.9241L96.4482 26.9538L96.4108 26.9862L97.3277 28.0441ZM97.8131 14.3641L96.9994 15.5034L97.0131 15.5131L97.027 15.5226L97.8131 14.3641ZM97.5704 11.8046L98.6586 12.6855L98.6586 12.6855L97.5704 11.8046ZM98.453 11.1427L98.9632 12.4464L98.9774 12.4409L98.9915 12.435L98.453 11.1427ZM100.262 11.0986L99.7838 12.4143L99.8106 12.424L99.8378 12.4327L100.262 11.0986ZM101.101 11.6943L100.008 12.5689L100.032 12.5991L100.057 12.6278L101.101 11.6943ZM101.101 13.8787L102.144 14.8122L102.156 14.799L102.167 14.7854L101.101 13.8787ZM100.174 14.5406L99.6102 13.2592L99.6004 13.2635L99.5907 13.268L100.174 14.5406ZM96.6216 28.331V26.931C96.5595 26.931 96.5134 26.9212 96.4335 26.8522L95.5184 27.9117L94.6034 28.9713C95.1707 29.4612 95.86 29.731 96.6216 29.731V28.331ZM95.5184 27.9117L96.4577 26.8736C96.5062 26.9174 96.5096 26.9484 96.4969 26.911C96.4813 26.865 96.4551 26.7524 96.4551 26.5437H95.0551H93.6551C93.6551 27.367 93.8533 28.2932 94.5791 28.9499L95.5184 27.9117ZM95.0551 26.5437H96.4551C96.4551 26.3053 96.4881 25.9046 96.5734 25.3075L95.1875 25.1095L93.8015 24.9116C93.7103 25.5501 93.6551 26.1056 93.6551 26.5437H95.0551ZM95.1875 25.1095L96.5684 25.3397C96.6664 24.7516 96.7935 24.1081 96.9506 23.4083L95.5846 23.1017L94.2186 22.795C94.0521 23.5368 93.9144 24.2319 93.8065 24.8794L95.1875 25.1095ZM95.5846 23.1017L96.9519 23.4025C97.1095 22.6863 97.2813 21.9776 97.4673 21.2763L96.1142 20.9173L94.761 20.5583C94.5646 21.2985 94.3834 22.0461 94.2173 22.8009L95.5846 23.1017ZM96.1142 20.9173L97.4603 21.3019C97.6613 20.5984 97.8528 19.9821 98.0345 19.4508L96.7099 18.9977L95.3853 18.5445C95.1846 19.1312 94.9789 19.7947 94.768 20.5327L96.1142 20.9173ZM96.7099 18.9977L98.0381 19.4404C98.2228 18.8862 98.3634 18.5465 98.4563 18.37L97.2174 17.7179L95.9785 17.0659C95.7772 17.4484 95.5795 17.9618 95.3817 18.555L96.7099 18.9977ZM97.2174 17.7179L98.4362 18.4068C98.4689 18.349 98.4963 18.305 98.5181 18.2728C98.5401 18.2402 98.5531 18.2244 98.5562 18.2208C98.5598 18.2166 98.5464 18.2331 98.5145 18.2595C98.483 18.2855 98.4207 18.3317 98.3263 18.3746L97.7469 17.1001L97.1676 15.8256C96.8292 15.9795 96.5881 16.2145 96.4302 16.3986C96.2637 16.5929 96.1214 16.8117 95.9986 17.0291L97.2174 17.7179ZM97.7469 17.1001L98.373 18.3523C98.3972 18.3402 98.3525 18.3677 98.2544 18.3677V16.9677V15.5677C97.8327 15.5677 97.4497 15.6835 97.1208 15.8479L97.7469 17.1001ZM98.2544 16.9677V18.3677C98.2577 18.3677 98.2577 18.368 98.2553 18.3676C98.2529 18.3672 98.25 18.3665 98.2473 18.3656C98.2446 18.3648 98.244 18.3643 98.246 18.3653C98.248 18.3664 98.2539 18.3695 98.2635 18.3763L99.0708 17.2325L99.8782 16.0888C99.4021 15.7527 98.8499 15.5677 98.2544 15.5677V16.9677ZM99.0708 17.2325L98.2942 18.3974C98.2038 18.3371 98.1397 18.2678 98.0983 18.2087C98.0588 18.1524 98.0448 18.1127 98.043 18.1075C98.0414 18.1026 98.0484 18.1221 98.0554 18.1746C98.0623 18.2265 98.068 18.301 98.068 18.4019H99.468H100.868C100.868 17.7295 100.745 16.6661 99.8474 16.0676L99.0708 17.2325ZM99.468 18.4019H98.068C98.068 18.5115 98.0421 18.7943 97.9546 19.3191L99.3356 19.5493L100.717 19.7794C100.806 19.2452 100.868 18.7631 100.868 18.4019H99.468ZM99.3356 19.5493L97.9557 19.3127C97.8694 19.8162 97.7608 20.41 97.6296 21.0953L99.0046 21.3586L100.38 21.6219C100.513 20.9245 100.625 20.3121 100.715 19.7858L99.3356 19.5493ZM99.0046 21.3586L97.6296 21.0953C97.4998 21.7733 97.3553 22.4742 97.196 23.198L98.5633 23.4988L99.9306 23.7996C100.095 23.0526 100.245 22.3266 100.38 21.6219L99.0046 21.3586ZM98.5633 23.4988L97.1905 23.2243C97.0452 23.951 96.9001 24.64 96.7554 25.2913L98.122 25.595L99.4887 25.8987C99.6382 25.2261 99.7873 24.5176 99.9361 23.7734L98.5633 23.4988ZM98.122 25.595L96.7504 25.3144C96.6178 25.9628 96.507 26.5092 96.4183 26.9532L97.7911 27.2277L99.1639 27.5023C99.2516 27.0637 99.3615 26.5216 99.4936 25.8755L98.122 25.595ZM97.7911 27.2277L96.4183 26.9532C96.4051 27.019 96.3932 27.033 96.4025 27.0166C96.4074 27.008 96.4168 26.9933 96.4322 26.9756C96.4478 26.9577 96.4665 26.94 96.4877 26.9241L97.3277 28.0441L98.1677 29.1641C98.7479 28.729 99.0419 28.112 99.1639 27.5023L97.7911 27.2277ZM97.3277 28.0441L96.4108 26.9862C96.3995 26.996 96.4148 26.9801 96.4588 26.9622C96.5057 26.9431 96.5631 26.931 96.6216 26.931V28.331V29.731C97.2638 29.731 97.8145 29.4748 98.2446 29.1021L97.3277 28.0441ZM99.1591 14.7834V13.3834C98.9614 13.3834 98.7854 13.332 98.5992 13.2057L97.8131 14.3641L97.027 15.5226C97.6646 15.9552 98.3859 16.1834 99.1591 16.1834V14.7834ZM97.8131 14.3641L98.6269 13.2249C98.6169 13.2178 98.6161 13.2156 98.6192 13.2193C98.6224 13.2232 98.6234 13.2257 98.6221 13.223C98.6198 13.2178 98.5953 13.1619 98.5953 13.0182H97.1953H95.7953C95.7953 13.975 96.1462 14.8939 96.9994 15.5034L97.8131 14.3641ZM97.1953 13.0182H98.5953C98.5953 12.754 98.6578 12.6865 98.6586 12.6855L97.5704 11.8046L96.4823 10.9238C95.9829 11.5406 95.7953 12.2821 95.7953 13.0182H97.1953ZM97.5704 11.8046L98.6586 12.6855C98.7706 12.5471 98.8718 12.4822 98.9632 12.4464L98.453 11.1427L97.9428 9.83897C97.3576 10.068 96.8703 10.4444 96.4823 10.9238L97.5704 11.8046ZM98.453 11.1427L98.9915 12.435C99.2435 12.33 99.3627 12.3221 99.3797 12.3221V10.9221V9.52206C98.8672 9.52206 98.3685 9.66124 97.9145 9.8504L98.453 11.1427ZM99.3797 10.9221V12.3221C99.4405 12.3221 99.5699 12.3365 99.7838 12.4143L100.262 11.0986L100.741 9.78287C100.307 9.6253 99.8484 9.52206 99.3797 9.52206V10.9221ZM100.262 11.0986L99.8378 12.4327C99.8696 12.4428 99.9252 12.466 100.008 12.5689L101.101 11.6943L102.194 10.8198C101.806 10.3343 101.302 9.9603 100.687 9.76448L100.262 11.0986ZM101.101 11.6943L100.057 12.6278C99.9984 12.5619 100.076 12.5815 100.076 12.9079H101.476H102.876C102.876 12.1751 102.703 11.3857 102.144 10.7608L101.101 11.6943ZM101.476 12.9079H100.076C100.076 12.913 100.075 12.9142 100.076 12.9127C100.076 12.9112 100.076 12.9102 100.076 12.9108C100.076 12.9115 100.074 12.9165 100.068 12.926C100.062 12.9357 100.052 12.9511 100.034 12.972L101.101 13.8787L102.167 14.7854C102.611 14.2636 102.876 13.6251 102.876 12.9079H101.476ZM101.101 13.8787L100.057 12.9452C99.9499 13.0654 99.8084 13.172 99.6102 13.2592L100.174 14.5406L100.738 15.8221C101.275 15.5857 101.752 15.251 102.144 14.8122L101.101 13.8787ZM100.174 14.5406L99.5907 13.268C99.3847 13.3624 99.2452 13.3834 99.1591 13.3834V14.7834V16.1834C99.7202 16.1834 100.257 16.0425 100.757 15.8133L100.174 14.5406ZM111.84 16.1955L110.556 16.7537L111.863 19.7584L113.131 16.7374L111.84 16.1955ZM113.981 10.2381L115.321 10.643L115.324 10.6329L115.327 10.6227L113.981 10.2381ZM114.488 9.28929L113.531 8.26794L113.514 8.28338L113.498 8.29934L114.488 9.28929ZM116.231 9.26723L115.168 10.1783L115.185 10.1979L115.202 10.2168L116.231 9.26723ZM116.143 11.5619L117.471 12.0047L117.474 11.9965L116.143 11.5619ZM114.267 18.0268L112.905 17.7038L114.267 18.0268ZM113.407 22.7266L112.02 22.5353L113.407 22.7266ZM112.745 29.5004L111.549 28.7725L111.531 28.8026L111.514 28.8336L112.745 29.5004ZM110.561 29.4783L109.381 30.233L109.392 30.2494L109.403 30.2656L110.561 29.4783ZM110.318 25.2419L108.927 25.0815L108.926 25.0934L108.925 25.1053L110.318 25.2419ZM110.583 23.2782L111.965 23.5023L109.373 22.5728L110.583 23.2782ZM108.288 26.4775L107.248 25.5401L107.247 25.541L108.288 26.4775ZM105.993 28.5075L105.239 27.3283L105.23 27.3336L105.222 27.339L105.993 28.5075ZM101.977 28.5075L102.909 27.4627L101.977 28.5075ZM101.713 23.9401L102.987 24.5195L102.991 24.5108L101.713 23.9401ZM103.169 21.513L104.284 22.3596L103.169 21.513ZM105.155 19.2845L106.124 20.2949L106.124 20.2945L105.155 19.2845ZM107.361 17.4311L108.179 18.5672L108.187 18.5619L108.194 18.5565L107.361 17.4311ZM109.413 16.1514L110.028 17.4093L110.028 17.4093L109.413 16.1514ZM111.333 17.387L112.607 17.9663L114.637 13.5018L110.556 16.2221L111.333 17.387ZM111.046 17.5635L111.672 18.8157L111.707 18.7983L111.741 18.779L111.046 17.5635ZM110.781 17.7179L111.529 18.9016L111.543 18.8924L111.558 18.8828L110.781 17.7179ZM108.994 18.9977L109.846 20.1083L109.854 20.1021L109.862 20.0959L108.994 18.9977ZM107.118 20.6305L108.084 21.6442L108.09 21.6383L108.096 21.6323L107.118 20.6305ZM105.42 22.4839L104.324 21.6123L104.321 21.6155L105.42 22.4839ZM104.206 24.3814L102.948 23.767L102.942 23.7795L104.206 24.3814ZM103.897 26.3893L104.523 25.1371L104.523 25.1371L103.897 26.3893ZM105.795 25.7715L104.95 24.6548L104.944 24.6598L104.937 24.6649L105.795 25.7715ZM107.626 23.8739L106.516 23.0213L106.513 23.0243L107.626 23.8739ZM109.501 20.9835L108.287 20.2871L108.28 20.2994L109.501 20.9835ZM111.84 16.1955L113.131 16.7374C113.959 14.7647 114.689 12.7331 115.321 10.643L113.981 10.2381L112.64 9.83312C112.036 11.8323 111.339 13.7723 110.549 15.6535L111.84 16.1955ZM113.981 10.2381L115.327 10.6227C115.402 10.3582 115.477 10.2805 115.478 10.2792L114.488 9.28929L113.498 8.29934C113.058 8.73933 112.794 9.29415 112.634 9.85346L113.981 10.2381ZM114.488 9.28929L115.446 10.3106C115.429 10.3258 115.412 10.3389 115.394 10.3492C115.377 10.3593 115.364 10.3643 115.359 10.3662C115.349 10.3696 115.376 10.3583 115.459 10.3583V8.95832V7.55832C114.794 7.55832 114.091 7.74212 113.531 8.26794L114.488 9.28929ZM115.459 8.95832V10.3583C115.488 10.3583 115.454 10.3629 115.386 10.3354C115.31 10.3049 115.23 10.2508 115.168 10.1783L116.231 9.26723L117.294 8.35612C116.788 7.76535 116.096 7.55832 115.459 7.55832V8.95832ZM116.231 9.26723L115.202 10.2168C115.146 10.1562 115.116 10.094 115.102 10.0519C115.089 10.015 115.096 10.012 115.096 10.0615H116.496H117.896C117.896 9.48003 117.74 8.8376 117.26 8.31763L116.231 9.26723ZM116.496 10.0615H115.096C115.096 10.0385 115.096 10.1087 115.045 10.3256C114.998 10.5239 114.923 10.7887 114.812 11.1274L116.143 11.5619L117.474 11.9965C117.702 11.2973 117.896 10.5951 117.896 10.0615H116.496ZM116.143 11.5619L114.815 11.1192C114.575 11.8377 114.285 12.7449 113.945 13.8383L115.282 14.2538L116.619 14.6693C116.956 13.5857 117.24 12.6983 117.471 12.0047L116.143 11.5619ZM115.282 14.2538L113.945 13.8383C113.595 14.9645 113.249 16.2542 112.905 17.7038L114.267 18.0268L115.63 18.3498C115.963 16.9458 116.293 15.7201 116.619 14.6693L115.282 14.2538ZM114.267 18.0268L112.905 17.7038C112.555 19.1809 112.26 20.7921 112.02 22.5353L113.407 22.7266L114.794 22.9179C115.024 21.2484 115.303 19.7265 115.63 18.3498L114.267 18.0268ZM113.407 22.7266L112.02 22.5353C111.775 24.3124 111.654 26.2008 111.654 28.1986H113.054H114.454C114.454 26.313 114.568 24.5534 114.794 22.9179L113.407 22.7266ZM113.054 28.1986H111.654C111.654 28.5553 111.584 28.7156 111.549 28.7725L112.745 29.5004L113.941 30.2283C114.318 29.6086 114.454 28.9009 114.454 28.1986H113.054ZM112.745 29.5004L111.514 28.8336C111.526 28.8116 111.548 28.7781 111.584 28.7421C111.62 28.7057 111.661 28.6768 111.7 28.6563C111.778 28.6158 111.807 28.6299 111.73 28.6299V30.0299V31.4299C112.601 31.4299 113.485 31.0744 113.976 30.1672L112.745 29.5004ZM111.73 30.0299V28.6299C111.626 28.6299 111.608 28.6119 111.638 28.6258C111.652 28.6327 111.671 28.6439 111.688 28.6593C111.706 28.6744 111.716 28.6871 111.718 28.6911L110.561 29.4783L109.403 30.2656C109.966 31.0935 110.838 31.4299 111.73 31.4299V30.0299ZM110.561 29.4783L111.74 28.7236C111.687 28.6418 111.608 28.4548 111.608 28.0662H110.208H108.808C108.808 28.825 108.963 29.5794 109.381 30.233L110.561 29.4783ZM110.208 28.0662H111.608C111.608 26.959 111.644 26.0669 111.711 25.3785L110.318 25.2419L108.925 25.1053C108.845 25.9174 108.808 26.9081 108.808 28.0662H110.208ZM110.318 25.2419L111.709 25.4024C111.795 24.6512 111.881 24.019 111.965 23.5023L110.583 23.2782L109.201 23.0541C109.108 23.6259 109.017 24.3029 108.927 25.0815L110.318 25.2419ZM110.583 23.2782L109.373 22.5728C108.692 23.7401 107.982 24.7257 107.248 25.5401L108.288 26.4775L109.328 27.415C110.211 26.4348 111.031 25.2875 111.792 23.9836L110.583 23.2782ZM108.288 26.4775L107.247 25.541C106.509 26.3613 105.838 26.9446 105.239 27.3283L105.993 28.5075L106.748 29.6867C107.619 29.1289 108.478 28.359 109.329 27.4141L108.288 26.4775ZM105.993 28.5075L105.222 27.339C104.579 27.7635 104.224 27.8356 104.096 27.8356V29.2356V30.6356C105.027 30.6356 105.937 30.2223 106.764 29.6759L105.993 28.5075ZM104.096 29.2356V27.8356C103.503 27.8356 103.15 27.6773 102.909 27.4627L101.977 28.5075L101.046 29.5523C101.893 30.3085 102.953 30.6356 104.096 30.6356V29.2356ZM101.977 28.5075L102.909 27.4627C102.757 27.3271 102.561 27.0344 102.561 26.301H101.161H99.7611C99.7611 27.5388 100.109 28.7171 101.046 29.5523L101.977 28.5075ZM101.161 26.301H102.561C102.561 25.7658 102.689 25.1758 102.987 24.5195L101.713 23.9401L100.438 23.3608C100.001 24.3225 99.7611 25.3065 99.7611 26.301H101.161ZM101.713 23.9401L102.991 24.5108C103.311 23.7947 103.739 23.0774 104.284 22.3596L103.169 21.513L102.054 20.6664C101.393 21.5373 100.85 22.4381 100.434 23.3694L101.713 23.9401ZM103.169 21.513L104.284 22.3596C104.843 21.6237 105.456 20.9356 106.124 20.2949L105.155 19.2845L104.186 18.2742C103.412 19.0161 102.701 19.8137 102.054 20.6664L103.169 21.513ZM105.155 19.2845L106.124 20.2945C106.818 19.6284 107.503 19.0539 108.179 18.5672L107.361 17.4311L106.543 16.2949C105.748 16.8674 104.962 17.5285 104.185 18.2746L105.155 19.2845ZM107.361 17.4311L108.194 18.5565C108.88 18.0488 109.491 17.6716 110.028 17.4093L109.413 16.1514L108.799 14.8934C108.071 15.2489 107.313 15.7249 106.528 16.3057L107.361 17.4311ZM109.413 16.1514L110.028 17.4093C110.595 17.1323 110.879 17.088 110.958 17.088V15.688V14.288C110.242 14.288 109.497 14.5526 108.799 14.8934L109.413 16.1514ZM110.958 15.688V17.088C111.005 17.088 110.931 17.0974 110.811 17.0285C110.751 16.9939 110.694 16.9474 110.646 16.8921C110.599 16.8378 110.571 16.7875 110.556 16.7537L111.84 16.1955L113.124 15.6373C112.942 15.2178 112.638 14.8489 112.207 14.6012C111.793 14.3632 111.352 14.288 110.958 14.288V15.688ZM111.333 17.387L110.556 16.2221C110.498 16.2612 110.43 16.3032 110.351 16.3479L111.046 17.5635L111.741 18.779C111.868 18.7061 111.992 18.6304 112.109 18.5518L111.333 17.387ZM111.046 17.5635L110.42 16.3113C110.276 16.3832 110.138 16.4644 110.005 16.5531L110.781 17.7179L111.558 18.8828C111.601 18.8538 111.639 18.832 111.672 18.8157L111.046 17.5635ZM110.781 17.7179L110.034 16.5343C109.425 16.9186 108.789 17.3751 108.126 17.8995L108.994 18.9977L109.862 20.0959C110.464 19.62 111.019 19.2233 111.529 18.9016L110.781 17.7179ZM108.994 18.9977L108.142 17.887C107.462 18.4089 106.795 18.99 106.141 19.6286L107.118 20.6305L108.096 21.6323C108.678 21.0647 109.261 20.5573 109.846 20.1083L108.994 18.9977ZM107.118 20.6305L106.153 19.6167C105.49 20.248 104.88 20.9132 104.324 21.6123L105.42 22.4839L106.515 23.3554C106.989 22.7601 107.511 22.1897 108.084 21.6442L107.118 20.6305ZM105.42 22.4839L104.321 21.6155C103.768 22.3156 103.307 23.0325 102.948 23.767L104.206 24.3814L105.464 24.9958C105.723 24.4653 106.071 23.9172 106.518 23.3522L105.42 22.4839ZM104.206 24.3814L102.942 23.7795C102.575 24.5495 102.365 25.3504 102.365 26.1686H103.765H105.165C105.165 25.8396 105.248 25.4489 105.47 24.9833L104.206 24.3814ZM103.765 26.1686H102.365C102.365 26.4228 102.421 26.727 102.597 27.0213C102.776 27.3192 103.025 27.5187 103.271 27.6415L103.897 26.3893L104.523 25.1371C104.681 25.2158 104.864 25.3564 104.998 25.5807C105.131 25.8015 105.165 26.0175 105.165 26.1686H103.765ZM103.897 26.3893L103.271 27.6415C103.49 27.7511 103.788 27.8555 104.14 27.8555V26.4555V25.0555C104.345 25.0555 104.48 25.1157 104.523 25.1371L103.897 26.3893ZM104.14 26.4555V27.8555C105.077 27.8555 105.924 27.4422 106.652 26.8781L105.795 25.7715L104.937 24.6649C104.488 25.0128 104.232 25.0555 104.14 25.0555V26.4555ZM105.795 25.7715L106.639 26.8882C107.371 26.3346 108.069 25.601 108.739 24.7236L107.626 23.8739L106.513 23.0243C105.948 23.7649 105.424 24.2964 104.95 24.6548L105.795 25.7715ZM107.626 23.8739L108.736 24.7266C109.418 23.8394 110.079 22.8174 110.723 21.6675L109.501 20.9835L108.28 20.2994C107.688 21.356 107.099 22.261 106.516 23.0213L107.626 23.8739ZM109.501 20.9835L110.716 21.6798C111.373 20.5344 112.003 19.2961 112.607 17.9663L111.333 17.387L110.058 16.8076C109.486 18.0668 108.895 19.2261 108.287 20.2871L109.501 20.9835ZM118.866 28.8605L118.059 30.0043L118.074 30.015L118.09 30.0254L118.866 28.8605ZM118.8 27.3381L119.79 28.328L119.807 28.311L119.824 28.2933L118.8 27.3381ZM120.168 26.6761L119.761 25.3365L119.751 25.3399L120.168 26.6761ZM122.507 25.8156L123.071 27.0971L123.082 27.0918L122.507 25.8156ZM124.338 24.7124L123.452 23.6288L123.444 23.6356L123.435 23.6424L124.338 24.7124ZM124.758 22.8148L123.961 23.9659L123.98 23.9795L124 23.9925L124.758 22.8148ZM123.103 22.7266L123.301 24.1125L123.321 24.1097L123.341 24.1062L123.103 22.7266ZM121.735 22.9693L121.978 24.348L121.998 24.3445L122.017 24.3405L121.735 22.9693ZM120.278 23.212L120.458 24.6005L120.476 24.5981L120.495 24.5952L120.278 23.212ZM117.41 22.7928L116.44 23.8027L116.451 23.813L116.462 23.8231L117.41 22.7928ZM117.322 20.2333L116.121 19.513L117.322 20.2333ZM118.557 18.5343L119.633 19.4306L118.557 18.5343ZM120.278 16.6809L121.257 17.6824L121.257 17.6824L120.278 16.6809ZM122.198 14.9819L123.07 16.0776L123.073 16.0752L122.198 14.9819ZM124.074 13.7243L124.724 14.9638L124.736 14.9575L124.748 14.951L124.074 13.7243ZM126.699 13.6801L125.684 14.6444L125.697 14.6574L125.709 14.6701L126.699 13.6801ZM127.074 15.6439L128.455 15.874L128.457 15.8622L127.074 15.6439ZM126.743 16.372L127.806 17.2831L127.822 17.2651L127.837 17.2466L126.743 16.372ZM124.427 16.7692L124.683 15.3928L124.086 15.2818L123.597 15.6412L124.427 16.7692ZM122.86 17.9827L123.738 19.073L123.742 19.0702L122.86 17.9827ZM121.36 19.3286L122.334 20.3342L122.342 20.3265L122.35 20.3186L121.36 19.3286ZM120.19 20.6746L119.043 19.8717L116.646 23.2957L120.622 22.0063L120.19 20.6746ZM122.044 20.2554L122.25 21.6401L122.264 21.6379L122.279 21.6355L122.044 20.2554ZM126.214 20.5422L125.508 21.7515L125.528 21.763L125.548 21.7738L126.214 20.5422ZM127.405 21.7337L126.153 22.3598L126.16 22.3743L126.168 22.3887L127.405 21.7337ZM127.14 25.4185L125.968 24.6537L125.968 24.6537L127.14 25.4185ZM125.375 27.2719L126.222 28.3865L125.375 27.2719ZM122.926 28.6178L123.42 29.9278L122.926 28.6178ZM120.212 29.1253V27.7253C119.955 27.7253 119.78 27.7068 119.672 27.6854C119.555 27.6626 119.57 27.6473 119.643 27.6956L118.866 28.8605L118.09 30.0254C118.719 30.4452 119.53 30.5253 120.212 30.5253V29.1253ZM118.866 28.8605L119.674 27.7168C119.728 27.7551 119.796 27.8247 119.844 27.9234C119.89 28.017 119.891 28.0838 119.891 28.0883H118.491H117.091C117.091 28.8256 117.394 29.5348 118.059 30.0043L118.866 28.8605ZM118.491 28.0883H119.891C119.891 28.1079 119.887 28.1547 119.863 28.2131C119.839 28.2718 119.808 28.3104 119.79 28.328L118.8 27.3381L117.81 26.3481C117.339 26.8196 117.091 27.427 117.091 28.0883H118.491ZM118.8 27.3381L119.824 28.2933C119.755 28.3666 119.743 28.3464 119.906 28.2673C120.051 28.1973 120.271 28.1106 120.586 28.0124L120.168 26.6761L119.751 25.3399C119.359 25.4623 118.998 25.5963 118.687 25.7469C118.394 25.8884 118.051 26.0889 117.777 26.3828L118.8 27.3381ZM120.168 26.6761L120.575 28.0158C121.448 27.7506 122.281 27.4447 123.071 27.0971L122.507 25.8156L121.943 24.5342C121.262 24.8337 120.535 25.1015 119.761 25.3365L120.168 26.6761ZM122.507 25.8156L123.082 27.0918C123.914 26.7169 124.645 26.2857 125.241 25.7824L124.338 24.7124L123.435 23.6424C123.091 23.9334 122.6 24.2377 121.931 24.5394L122.507 25.8156ZM124.338 24.7124L125.225 25.7959C125.892 25.2497 126.466 24.4709 126.466 23.4547H125.066H123.666C123.666 23.4349 123.669 23.416 123.673 23.4015C123.677 23.3877 123.68 23.3865 123.673 23.3986C123.657 23.4264 123.601 23.5071 123.452 23.6288L124.338 24.7124ZM125.066 23.4547H126.466C126.466 22.7952 126.206 22.082 125.515 21.6372L124.758 22.8148L124 23.9925C123.894 23.924 123.793 23.8167 123.728 23.6827C123.669 23.5593 123.666 23.4685 123.666 23.4547H125.066ZM124.758 22.8148L125.554 21.6638C125.098 21.3475 124.582 21.2163 124.074 21.2163V22.6163V24.0163C124.089 24.0163 124.079 24.0181 124.053 24.0104C124.025 24.0023 123.992 23.9875 123.961 23.9659L124.758 22.8148ZM124.074 22.6163V21.2163C123.73 21.2163 123.31 21.2701 122.865 21.3469L123.103 22.7266L123.341 24.1062C123.748 24.0359 123.976 24.0163 124.074 24.0163V22.6163ZM123.103 22.7266L122.905 21.3407C122.459 21.4043 121.974 21.4906 121.452 21.5981L121.735 22.9693L122.017 24.3405C122.495 24.2421 122.923 24.1665 123.301 24.1125L123.103 22.7266ZM121.735 22.9693L121.491 21.5906C121 21.6774 120.523 21.7567 120.062 21.8288L120.278 23.212L120.495 24.5952C120.975 24.5202 121.469 24.4377 121.978 24.348L121.735 22.9693ZM120.278 23.212L120.099 21.8235C119.68 21.8776 119.354 21.9003 119.109 21.9003V23.3003V24.7003C119.512 24.7003 119.965 24.6641 120.458 24.6005L120.278 23.212ZM119.109 23.3003V21.9003C118.515 21.9003 118.36 21.764 118.358 21.7625L117.41 22.7928L116.462 23.8231C117.196 24.4982 118.173 24.7003 119.109 24.7003V23.3003ZM117.41 22.7928L118.38 21.7828C118.307 21.7131 118.258 21.6386 118.258 21.4468H116.858H115.458C115.458 22.3436 115.778 23.1664 116.44 23.8027L117.41 22.7928ZM116.858 21.4468H118.258C118.258 21.5308 118.24 21.5333 118.282 21.4222C118.321 21.3195 118.395 21.1654 118.522 20.9536L117.322 20.2333L116.121 19.513C115.792 20.0619 115.458 20.7473 115.458 21.4468H116.858ZM117.322 20.2333L118.522 20.9536C118.784 20.5172 119.15 20.0103 119.633 19.4306L118.557 18.5343L117.482 17.6381C116.935 18.2939 116.477 18.9197 116.121 19.513L117.322 20.2333ZM118.557 18.5343L119.633 19.4306C120.114 18.8529 120.655 18.2701 121.257 17.6824L120.278 16.6809L119.3 15.6794C118.637 16.3273 118.03 16.9801 117.482 17.6381L118.557 18.5343ZM120.278 16.6809L121.257 17.6824C121.858 17.0955 122.462 16.5609 123.07 16.0776L122.198 14.9819L121.327 13.8863C120.64 14.4326 119.964 15.0307 119.3 15.6794L120.278 16.6809ZM122.198 14.9819L123.073 16.0752C123.683 15.587 124.233 15.2217 124.724 14.9638L124.074 13.7243L123.423 12.4847C122.737 12.8446 122.037 13.3178 121.323 13.8887L122.198 14.9819ZM124.074 13.7243L124.748 14.951C125.246 14.6771 125.502 14.6388 125.574 14.6388V13.2388V11.8388C124.822 11.8388 124.078 12.1242 123.399 12.4976L124.074 13.7243ZM125.574 13.2388V14.6388C125.619 14.6388 125.65 14.6424 125.669 14.6457C125.688 14.649 125.697 14.6523 125.697 14.6525C125.697 14.6527 125.694 14.6512 125.689 14.6479C125.684 14.6446 125.682 14.6425 125.684 14.6444L126.699 13.6801L127.714 12.7159C127.128 12.0984 126.361 11.8388 125.574 11.8388V13.2388ZM126.699 13.6801L125.709 14.6701C125.711 14.6719 125.713 14.672 125.717 14.6849C125.724 14.7025 125.74 14.7582 125.74 14.8716H127.14H128.54C128.54 14.0804 128.298 13.2987 127.689 12.6902L126.699 13.6801ZM127.14 14.8716H125.74C125.74 15.021 125.726 15.2043 125.691 15.4255L127.074 15.6439L128.457 15.8622C128.51 15.5244 128.54 15.193 128.54 14.8716H127.14ZM127.074 15.6439L125.693 15.4137C125.691 15.4301 125.685 15.4533 125.65 15.4974L126.743 16.372L127.837 17.2466C128.154 16.8494 128.37 16.3872 128.455 15.874L127.074 15.6439ZM126.743 16.372L125.68 15.4609C125.718 15.4166 125.747 15.4019 125.741 15.4052C125.733 15.4098 125.691 15.4301 125.6 15.4519L125.927 16.8133L126.254 18.1746C126.798 18.044 127.375 17.7857 127.806 17.2831L126.743 16.372ZM125.927 16.8133L125.6 15.4519C125.513 15.473 125.239 15.4963 124.683 15.3928L124.427 16.7692L124.17 18.1455C124.879 18.2774 125.606 18.3301 126.254 18.1746L125.927 16.8133ZM124.427 16.7692L123.597 15.6412C123.077 16.0236 122.538 16.4418 121.978 16.8953L122.86 17.9827L123.742 19.0702C124.271 18.641 124.776 18.2502 125.256 17.8971L124.427 16.7692ZM122.86 17.9827L121.982 16.8925C121.414 17.3498 120.877 17.8318 120.37 18.3387L121.36 19.3286L122.35 20.3186C122.784 19.884 123.247 19.4688 123.738 19.073L122.86 17.9827ZM121.36 19.3286L120.385 18.3231C119.864 18.8282 119.413 19.3439 119.043 19.8717L120.19 20.6746L121.337 21.4774C121.585 21.1227 121.914 20.741 122.334 20.3342L121.36 19.3286ZM120.19 20.6746L120.622 22.0063C121.079 21.8582 121.619 21.734 122.25 21.6401L122.044 20.2554L121.837 18.8706C121.086 18.9826 120.39 19.1379 119.758 19.3429L120.19 20.6746ZM122.044 20.2554L122.279 21.6355C122.892 21.5311 123.512 21.4788 124.14 21.4788V20.0788V18.6788C123.355 18.6788 122.578 18.7442 121.809 18.8752L122.044 20.2554ZM124.14 20.0788V21.4788C124.838 21.4788 125.261 21.607 125.508 21.7515L126.214 20.5422L126.919 19.3329C126.108 18.8595 125.148 18.6788 124.14 18.6788V20.0788ZM126.214 20.5422L125.548 21.7738C125.867 21.9464 126.045 22.1442 126.153 22.3598L127.405 21.7337L128.657 21.1076C128.265 20.3229 127.649 19.7264 126.88 19.3106L126.214 20.5422ZM127.405 21.7337L126.168 22.3887C126.319 22.6738 126.402 22.9983 126.402 23.3885H127.802H129.202C129.202 22.5725 129.021 21.7938 128.643 21.0786L127.405 21.7337ZM127.802 23.3885H126.402C126.402 23.7447 126.29 24.1598 125.968 24.6537L127.14 25.4185L128.313 26.1832C128.874 25.3238 129.202 24.3856 129.202 23.3885H127.802ZM127.14 25.4185L125.968 24.6537C125.626 25.1781 125.154 25.6816 124.528 26.1572L125.375 27.2719L126.222 28.3865C127.068 27.7442 127.773 27.0121 128.313 26.1832L127.14 25.4185ZM125.375 27.2719L124.528 26.1572C123.904 26.6313 123.208 27.0154 122.432 27.3078L122.926 28.6178L123.42 29.9278C124.439 29.5436 125.375 29.0304 126.222 28.3865L125.375 27.2719ZM122.926 28.6178L122.432 27.3078C121.685 27.5897 120.947 27.7253 120.212 27.7253V29.1253V30.5253C121.302 30.5253 122.373 30.3225 123.42 29.9278L122.926 28.6178Z" fill="white" mask="url(#path-2-outside-1_909_255)"/>
<defs>
<linearGradient id="paint0_linear_909_255" x1="129" y1="11" x2="81.5" y2="28" gradientUnits="userSpaceOnUse">
<stop stop-color="#A9A6FB"/>
<stop offset="1" stop-color="#6262D2"/>
</linearGradient>
</defs>
</svg>
