<?xml version="1.0" encoding="UTF-8"?>
<svg id="Warstwa_1" xmlns="http://www.w3.org/2000/svg" version="1.1" viewBox="0 0 33 30">
  <!-- Generator: Adobe Illustrator 29.6.1, SVG Export Plug-In . SVG Version: 2.1.1 Build 9)  -->
  <defs>
    <style>
      .st0 {
        fill: #a1a1e4;
        fill-opacity: .4;
      }
    </style>
  </defs>
  <path class="st0" d="M.4,19.9c.7-1,1.7-1.2,2.9-.6,3.9,2,7.7,4,11.3,6.2.6.4,1.1.9,1.3,1.5.4,1.1,0,1.9-1.3,2.2-.4.1-.8.1-1.3,0-.3,0-.7-.2-1-.3-3.9-1.8-7.6-3.8-11.1-6-1.3-.8-1.6-1.8-.9-2.8,0,0,0,0,0,0ZM29.1,0s0,0,.1,0c1.5,0,2.3.7,2.4,1.9.5,4.2.8,8.4,1,12.6,0,1.1,0,2.2-.4,3.4-.1.5-.4.9-.8,1.1-.4.3-.8.3-1.3.1-.5-.2-.8-.5-1-.9-.6-1.3-1-2.6-1-3.9-.2-3.8-.5-7.7-.8-11.5-.1-1.3.5-2.2,1.8-2.7ZM9.3,1.6c1.6-.9,3,.6,3.7,1.6,4.7,6.4,8.2,11.4,10.6,14.9.5.8.7,1.6.4,2.5-.4,1.4-2.2,1.8-3.5,1-.7-.4-1.4-1.1-2.1-2-3.1-4.3-6.1-8.7-8.9-13.2-.6-1-2-3.9-.3-4.8Z"/>
</svg>