<svg width="36" height="35" viewBox="0 0 36 35" fill="none" xmlns="http://www.w3.org/2000/svg">
<path fill-rule="evenodd" clip-rule="evenodd" d="M5.56775 20.3235C5.75648 16.4292 4.99827 12.8624 4.37222 9.07178C4.24985 8.33153 3.55218 7.8324 2.81397 7.95345C2.07531 8.07458 1.57584 8.7751 1.69777 9.51544C2.2915 13.1098 3.03906 16.4945 2.86055 20.1935C2.82428 20.9417 3.40213 21.5793 4.14892 21.6131C4.89614 21.6514 5.53192 21.0716 5.56775 20.3235Z" fill="#A1A1E4"/>
<path fill-rule="evenodd" clip-rule="evenodd" d="M14.7375 26.0094C19.8316 19.1323 24.2507 10.7022 26.8973 2.54438C27.1279 1.83191 26.7376 1.06565 26.0263 0.836213C25.315 0.606772 24.5494 0.995568 24.3188 1.70804C21.7594 9.5957 17.4856 17.7489 12.5591 24.3953C12.1141 24.9977 12.2409 25.8476 12.8418 26.2919C13.4426 26.7363 14.2925 26.6118 14.7375 26.0094Z" fill="#A1A1E4"/>
<path fill-rule="evenodd" clip-rule="evenodd" d="M17.5163 31.8933C23.3695 31.7223 28.9029 28.9853 33.6187 25.722C34.2334 25.2936 34.3871 24.4488 33.9624 23.8366C33.5364 23.2201 32.6914 23.0673 32.0758 23.4913C27.7814 26.4653 22.7681 29.0272 17.4372 29.1837C16.6893 29.2053 16.1003 29.8312 16.122 30.5773C16.1434 31.3235 16.7688 31.9149 17.5163 31.8933Z" fill="#A1A1E4"/>
</svg>
